<svg width="321" height="205" viewBox="0 0 321 205" fill="none" xmlns="http://www.w3.org/2000/svg">
<g clip-path="url(#clip0_6_216)">
<path d="M291 0H30C13.4315 0 0 13.4315 0 30V175C0 191.569 13.4315 205 30 205H291C307.569 205 321 191.569 321 175V30C321 13.4315 307.569 0 291 0Z" fill="black"/>
<path d="M59.6864 106.379C83.0907 106.379 102.064 88.6743 102.064 66.8348C102.064 44.9953 83.0907 27.2909 59.6864 27.2909C36.2821 27.2909 17.3091 44.9953 17.3091 66.8348C17.3091 88.6743 36.2821 106.379 59.6864 106.379Z" fill="#FFDE00"/>
<path d="M116.359 10.918C116.267 10.918 116.222 10.8815 116.222 10.8086L115.661 7.66406C115.661 7.60938 115.62 7.5638 115.538 7.52734C114.736 7.17188 113.87 6.99414 112.941 6.99414C111.975 6.99414 111.154 7.24935 110.48 7.75977C109.732 8.32487 109.359 9.07682 109.359 10.0156C109.359 10.918 109.691 11.6836 110.357 12.3125C110.803 12.7318 111.532 13.1738 112.544 13.6387L114.363 14.4727C115.784 15.1289 116.819 15.7943 117.466 16.4688C118.277 17.3164 118.683 18.3691 118.683 19.627C118.683 21.5046 117.963 22.9629 116.523 24.002C115.238 24.9316 113.624 25.3965 111.683 25.3965C110.689 25.3965 109.545 25.2507 108.251 24.959C107.887 24.877 107.554 24.7767 107.253 24.6582C107.162 24.6217 107.116 24.5762 107.116 24.5215V20.2969C107.116 20.2057 107.162 20.1602 107.253 20.1602H108.402C108.493 20.1875 108.538 20.224 108.538 20.2695L109.099 23.4277C109.108 23.4551 109.126 23.4779 109.154 23.4961L109.222 23.5781C109.878 23.9062 110.79 24.0703 111.956 24.0703C113.105 24.0703 114.066 23.8014 114.841 23.2637C115.725 22.653 116.167 21.7962 116.167 20.6934C116.167 19.1621 115.146 17.918 113.105 16.9609L111.259 16.0996C109.91 15.4707 108.907 14.8281 108.251 14.1719C107.385 13.306 106.952 12.2852 106.952 11.1094C106.952 9.93359 107.312 8.88997 108.032 7.97852C108.734 7.0944 109.655 6.46549 110.794 6.0918C111.523 5.85482 112.294 5.73633 113.105 5.73633C114.189 5.73633 115.301 5.86849 116.441 6.13281C116.751 6.20573 117.088 6.29688 117.452 6.40625C117.544 6.42448 117.589 6.47005 117.589 6.54297V10.7812C117.589 10.8724 117.544 10.918 117.452 10.918H116.359ZM125.943 13.6934C124.484 13.6934 123.541 14.5046 123.113 16.127C122.985 16.61 122.903 17.084 122.866 17.5488H128.581C128.663 14.9785 127.784 13.6934 125.943 13.6934ZM122.839 18.6426C122.876 20.1647 123.231 21.377 123.906 22.2793C124.68 23.3092 125.797 23.8242 127.255 23.8242C128.422 23.8242 129.516 23.5052 130.536 22.8672C130.573 22.8307 130.605 22.8216 130.632 22.8398C130.65 22.8672 130.673 22.8945 130.7 22.9219L131.097 23.6055C131.115 23.6875 131.088 23.7513 131.015 23.7969C129.42 24.8633 127.807 25.3965 126.175 25.3965C124.352 25.3965 122.917 24.8314 121.868 23.7012C120.838 22.6074 120.323 21.1445 120.323 19.3125C120.323 17.4349 120.825 15.8535 121.827 14.5684C122.921 13.1556 124.379 12.4492 126.202 12.4492C127.816 12.4492 129.042 12.9095 129.88 13.8301C130.691 14.7233 131.097 15.9811 131.097 17.6035C131.097 17.8952 131.079 18.196 131.042 18.5059C131.042 18.597 130.997 18.6426 130.906 18.6426H122.839ZM142.431 23.6875C141.1 24.8268 139.701 25.3965 138.234 25.3965C137.167 25.3965 136.297 25.0866 135.622 24.4668C134.92 23.8288 134.57 22.9811 134.57 21.9238V14.4453C134.57 14.3542 134.524 14.3086 134.433 14.3086L132.409 14.0762C132.318 14.0762 132.273 14.0306 132.273 13.9395V13.2969C132.273 13.2057 132.309 13.1602 132.382 13.1602L135.745 12.5996C135.773 12.5905 135.818 12.5814 135.882 12.5723H136.702C136.794 12.5723 136.839 12.6178 136.839 12.709V20.9395C136.839 22.6803 137.714 23.5508 139.464 23.5508C140.366 23.5508 141.292 23.2591 142.24 22.6758C142.331 22.6211 142.376 22.5664 142.376 22.5117V14.4453C142.376 14.3542 142.331 14.3086 142.24 14.3086L140.23 14.0762C140.129 14.0762 140.079 14.0306 140.079 13.9395V13.2969C140.079 13.2057 140.12 13.1602 140.202 13.1602L143.552 12.5996C143.588 12.5905 143.648 12.5814 143.73 12.5723H144.509C144.6 12.5723 144.646 12.6178 144.646 12.709V23.6602C144.646 23.7513 144.691 23.7969 144.782 23.7969L146.806 24.0156C146.897 24.0156 146.943 24.0658 146.943 24.166V24.8086C146.943 24.8906 146.906 24.9362 146.833 24.9453L142.663 25.2188C142.581 25.2279 142.536 25.1823 142.527 25.082L142.431 23.6875ZM158.646 12.5996C158.746 12.5814 158.805 12.5723 158.823 12.5723H159.603C159.694 12.5723 159.74 12.6178 159.74 12.709V13.9121C160.578 13.2467 161.608 12.7819 162.829 12.5176C163.203 12.4355 163.613 12.3945 164.06 12.3945C166.466 12.3945 167.669 13.748 167.669 16.4551V23.6875C167.669 23.7786 167.715 23.8242 167.806 23.8242L169.624 24.0156C169.715 24.0156 169.761 24.0658 169.761 24.166V24.8633C169.761 24.9544 169.715 25 169.624 25H163.499C163.399 25 163.349 24.9544 163.349 24.8633V24.166C163.349 24.0658 163.399 24.0156 163.499 24.0156L165.263 23.8242C165.354 23.8242 165.4 23.7786 165.4 23.6875V17.2754C165.4 16.2728 165.222 15.5345 164.866 15.0605C164.456 14.5228 163.764 14.2539 162.788 14.2539C161.685 14.2539 160.715 14.4681 159.876 14.8965C159.803 14.9329 159.758 14.9694 159.74 15.0059V23.6875C159.74 23.7786 159.785 23.8242 159.876 23.8242L161.64 24.0156C161.74 24.0156 161.79 24.0658 161.79 24.166V24.8633C161.79 24.9544 161.74 25 161.64 25H155.378C155.278 25 155.228 24.9544 155.228 24.8633V24.166C155.228 24.0658 155.278 24.0156 155.378 24.0156L157.333 23.8242C157.424 23.8242 157.47 23.7786 157.47 23.6875V14.4453C157.47 14.3542 157.424 14.3086 157.333 14.3086L155.323 14.0762C155.223 14.0762 155.173 14.0306 155.173 13.9395V13.2969C155.173 13.2057 155.21 13.1602 155.282 13.1602L158.646 12.5996ZM177.116 13.666C175.904 13.666 175.006 14.1764 174.423 15.1973C173.958 16.0085 173.726 17.0658 173.726 18.3691C173.726 20.985 174.428 22.7578 175.831 23.6875C176.342 24.0247 176.957 24.1934 177.677 24.1934C179.928 24.1934 181.054 22.612 181.054 19.4492C181.054 17.8906 180.79 16.61 180.261 15.6074C179.587 14.3132 178.538 13.666 177.116 13.666ZM177.472 12.4492C179.441 12.4492 180.963 13.0234 182.038 14.1719C183.087 15.293 183.611 16.847 183.611 18.834C183.611 20.7389 183.045 22.3021 181.915 23.5234C180.749 24.7721 179.222 25.3965 177.335 25.3965C175.385 25.3965 173.867 24.8132 172.782 23.6465C171.716 22.5163 171.183 20.9714 171.183 19.0117C171.183 17.0794 171.743 15.5117 172.865 14.3086C174.022 13.069 175.558 12.4492 177.472 12.4492ZM185.361 13.1602L188.724 12.5996C188.833 12.5814 188.929 12.5723 189.011 12.5723H189.681C189.772 12.5723 189.818 12.6178 189.818 12.709V13.9121C191.167 12.9004 192.52 12.3945 193.878 12.3945C195.254 12.3945 196.271 12.9915 196.927 14.1855C198.276 13.0736 199.734 12.5176 201.302 12.5176C203.69 12.5176 204.884 13.8711 204.884 16.5781V23.6875C204.884 23.7786 204.93 23.8242 205.021 23.8242L206.839 24.0156C206.939 24.0156 206.99 24.0658 206.99 24.166V24.8633C206.99 24.9544 206.939 25 206.839 25H200.851C200.76 25 200.714 24.9544 200.714 24.8633V24.166C200.714 24.0658 200.76 24.0156 200.851 24.0156L202.478 23.8242C202.569 23.8242 202.615 23.7786 202.615 23.6875V17.4121C202.615 15.3978 201.758 14.3906 200.044 14.3906C198.969 14.3906 198.034 14.6413 197.241 15.1426C197.314 15.4342 197.351 15.8535 197.351 16.4004V23.6875C197.351 23.7786 197.396 23.8242 197.488 23.8242L199.115 24.0156C199.206 24.0156 199.251 24.0658 199.251 24.166V24.8633C199.251 24.9544 199.206 25 199.115 25H193.318C193.226 25 193.181 24.9544 193.181 24.8633V24.166C193.181 24.0658 193.226 24.0156 193.318 24.0156L194.945 23.8242C195.036 23.8242 195.081 23.7786 195.081 23.6875V17.2754C195.081 15.2611 194.261 14.2539 192.62 14.2539C191.7 14.2539 190.811 14.4681 189.954 14.8965C189.918 14.9147 189.872 14.9512 189.818 15.0059V23.6875C189.818 23.7786 189.863 23.8242 189.954 23.8242L191.581 24.0156C191.672 24.0156 191.718 24.0658 191.718 24.166V24.8633C191.718 24.9544 191.672 25 191.581 25H185.456C185.356 25 185.306 24.9544 185.306 24.8633V24.166C185.306 24.0658 185.356 24.0156 185.456 24.0156L187.411 23.8242C187.503 23.8242 187.548 23.7786 187.548 23.6875V14.4453C187.548 14.3542 187.503 14.3086 187.411 14.3086L185.402 14.0762C185.301 14.0762 185.251 14.0306 185.251 13.9395V13.2969C185.251 13.2057 185.288 13.1602 185.361 13.1602ZM214.017 13.6934C212.559 13.6934 211.615 14.5046 211.187 16.127C211.059 16.61 210.977 17.084 210.941 17.5488H216.656C216.738 14.9785 215.858 13.6934 214.017 13.6934ZM210.913 18.6426C210.95 20.1647 211.305 21.377 211.98 22.2793C212.754 23.3092 213.871 23.8242 215.329 23.8242C216.496 23.8242 217.59 23.5052 218.611 22.8672C218.647 22.8307 218.679 22.8216 218.706 22.8398C218.725 22.8672 218.747 22.8945 218.775 22.9219L219.171 23.6055C219.189 23.6875 219.162 23.7513 219.089 23.7969C217.494 24.8633 215.881 25.3965 214.249 25.3965C212.426 25.3965 210.991 24.8314 209.943 23.7012C208.913 22.6074 208.398 21.1445 208.398 19.3125C208.398 17.4349 208.899 15.8535 209.902 14.5684C210.995 13.1556 212.454 12.4492 214.277 12.4492C215.89 12.4492 217.116 12.9095 217.954 13.8301C218.766 14.7233 219.171 15.9811 219.171 17.6035C219.171 17.8952 219.153 18.196 219.116 18.5059C219.116 18.597 219.071 18.6426 218.98 18.6426H210.913Z" fill="#FFDE00"/>
<path d="M120.977 33.9942C120.921 34.0875 120.862 34.1591 120.799 34.2089C120.737 34.2524 120.656 34.2742 120.557 34.2742C120.451 34.2742 120.326 34.2213 120.183 34.1155C120.046 34.0098 119.869 33.8946 119.651 33.7702C119.44 33.6395 119.182 33.5213 118.877 33.4155C118.578 33.3097 118.214 33.2569 117.785 33.2569C117.38 33.2569 117.022 33.3129 116.711 33.4249C116.4 33.5306 116.139 33.6769 115.927 33.8635C115.722 34.0502 115.566 34.2711 115.461 34.5262C115.355 34.7751 115.302 35.0458 115.302 35.3382C115.302 35.7115 115.392 36.0226 115.573 36.2715C115.759 36.5142 116.002 36.7226 116.301 36.8969C116.606 37.0711 116.948 37.2235 117.327 37.3542C117.713 37.4786 118.105 37.6093 118.503 37.7462C118.908 37.8831 119.3 38.0386 119.679 38.2129C120.065 38.3809 120.407 38.5955 120.706 38.8569C121.011 39.1182 121.254 39.4386 121.434 39.8182C121.621 40.1978 121.714 40.6644 121.714 41.2182C121.714 41.8031 121.614 42.3538 121.415 42.8702C121.216 43.3804 120.924 43.8253 120.538 44.2049C120.158 44.5844 119.689 44.8831 119.129 45.1009C118.575 45.3186 117.943 45.4275 117.234 45.4275C116.369 45.4275 115.579 45.272 114.863 44.9609C114.154 44.6435 113.547 44.2173 113.043 43.6822L113.566 42.8235C113.616 42.7551 113.675 42.6991 113.743 42.6555C113.818 42.6058 113.899 42.5809 113.986 42.5809C114.117 42.5809 114.266 42.6524 114.434 42.7955C114.602 42.9324 114.81 43.0849 115.059 43.2529C115.314 43.4209 115.619 43.5764 115.974 43.7195C116.335 43.8564 116.774 43.9249 117.29 43.9249C117.719 43.9249 118.102 43.8658 118.438 43.7475C118.774 43.6293 119.057 43.4644 119.287 43.2529C119.524 43.0351 119.704 42.7769 119.829 42.4782C119.953 42.1795 120.015 41.8466 120.015 41.4795C120.015 41.0751 119.922 40.7453 119.735 40.4902C119.555 40.2289 119.315 40.0111 119.017 39.8369C118.718 39.6626 118.376 39.5164 117.99 39.3982C117.61 39.2738 117.218 39.1493 116.814 39.0249C116.416 38.8942 116.024 38.7449 115.638 38.5769C115.258 38.4089 114.919 38.1911 114.621 37.9235C114.322 37.656 114.079 37.3231 113.893 36.9249C113.712 36.5204 113.622 36.0226 113.622 35.4315C113.622 34.9586 113.712 34.5013 113.893 34.0595C114.079 33.6178 114.347 33.2258 114.695 32.8835C115.044 32.5413 115.473 32.2675 115.983 32.0622C116.5 31.8569 117.091 31.7542 117.757 31.7542C118.503 31.7542 119.185 31.8724 119.801 32.1089C120.417 32.3453 120.955 32.6875 121.415 33.1355L120.977 33.9942ZM127.506 35.6742C128.072 35.6742 128.595 35.7706 129.074 35.9635C129.553 36.1502 129.967 36.424 130.315 36.7849C130.664 37.1395 130.934 37.5813 131.127 38.1102C131.326 38.6329 131.426 39.2302 131.426 39.9022C131.426 40.1635 131.398 40.3378 131.342 40.4249C131.286 40.512 131.18 40.5555 131.024 40.5555H124.734C124.746 41.1529 124.827 41.6724 124.976 42.1142C125.126 42.556 125.331 42.9262 125.592 43.2249C125.854 43.5173 126.165 43.7382 126.526 43.8875C126.887 44.0306 127.291 44.1022 127.739 44.1022C128.156 44.1022 128.514 44.0555 128.812 43.9622C129.117 43.8626 129.379 43.7569 129.596 43.6449C129.814 43.5329 129.995 43.4302 130.138 43.3369C130.287 43.2373 130.415 43.1875 130.52 43.1875C130.657 43.1875 130.763 43.2404 130.838 43.3462L131.304 43.9529C131.099 44.2018 130.853 44.4195 130.567 44.6062C130.281 44.7866 129.973 44.936 129.643 45.0542C129.32 45.1724 128.984 45.2595 128.635 45.3155C128.287 45.3778 127.941 45.4089 127.599 45.4089C126.946 45.4089 126.342 45.3 125.788 45.0822C125.241 44.8582 124.765 44.5346 124.36 44.1115C123.962 43.6822 123.651 43.1533 123.427 42.5249C123.203 41.8964 123.091 41.1746 123.091 40.3595C123.091 39.7 123.191 39.084 123.39 38.5115C123.595 37.9391 123.888 37.4444 124.267 37.0275C124.647 36.6044 125.11 36.2746 125.658 36.0382C126.205 35.7955 126.821 35.6742 127.506 35.6742ZM127.543 36.8969C126.74 36.8969 126.109 37.1302 125.648 37.5969C125.188 38.0573 124.902 38.6982 124.79 39.5195H129.932C129.932 39.1338 129.88 38.7822 129.774 38.4649C129.668 38.1413 129.512 37.8644 129.307 37.6342C129.102 37.3978 128.85 37.2173 128.551 37.0929C128.259 36.9622 127.923 36.8969 127.543 36.8969ZM134.989 35.8235V41.8529C134.989 42.5684 135.154 43.1222 135.484 43.5142C135.814 43.9062 136.312 44.1022 136.977 44.1022C137.463 44.1022 137.92 43.9871 138.349 43.7569C138.779 43.5266 139.174 43.2062 139.535 42.7955V35.8235H141.196V45.2782H140.207C139.97 45.2782 139.821 45.1631 139.759 44.9329L139.628 43.9155C139.217 44.3698 138.757 44.7369 138.247 45.0169C137.737 45.2906 137.152 45.4275 136.492 45.4275C135.976 45.4275 135.518 45.3435 135.12 45.1755C134.728 45.0013 134.398 44.7586 134.131 44.4475C133.863 44.1364 133.661 43.76 133.524 43.3182C133.393 42.8764 133.328 42.388 133.328 41.8529V35.8235H134.989ZM149.338 37.3822C149.263 37.5191 149.148 37.5875 148.993 37.5875C148.899 37.5875 148.793 37.5533 148.675 37.4849C148.557 37.4164 148.411 37.3418 148.237 37.2609C148.069 37.1738 147.866 37.096 147.63 37.0275C147.393 36.9529 147.113 36.9155 146.79 36.9155C146.51 36.9155 146.258 36.9529 146.034 37.0275C145.81 37.096 145.617 37.1924 145.455 37.3169C145.3 37.4413 145.178 37.5875 145.091 37.7555C145.01 37.9173 144.97 38.0946 144.97 38.2875C144.97 38.5302 145.038 38.7324 145.175 38.8942C145.318 39.056 145.505 39.196 145.735 39.3142C145.965 39.4324 146.227 39.5382 146.519 39.6315C146.812 39.7186 147.11 39.8151 147.415 39.9209C147.726 40.0204 148.028 40.1324 148.321 40.2569C148.613 40.3813 148.874 40.5369 149.105 40.7235C149.335 40.9102 149.518 41.1404 149.655 41.4142C149.798 41.6818 149.87 42.0053 149.87 42.3849C149.87 42.8204 149.792 43.2249 149.637 43.5982C149.481 43.9653 149.251 44.2858 148.946 44.5595C148.641 44.8271 148.268 45.0386 147.826 45.1942C147.384 45.3498 146.874 45.4275 146.295 45.4275C145.636 45.4275 145.038 45.3218 144.503 45.1102C143.968 44.8924 143.514 44.6155 143.141 44.2795L143.533 43.6449C143.582 43.564 143.641 43.5018 143.71 43.4582C143.778 43.4146 143.869 43.3929 143.981 43.3929C144.093 43.3929 144.211 43.4364 144.335 43.5235C144.46 43.6106 144.609 43.7071 144.783 43.8129C144.964 43.9186 145.178 44.0151 145.427 44.1022C145.682 44.1893 146 44.2329 146.379 44.2329C146.703 44.2329 146.986 44.1924 147.229 44.1115C147.471 44.0244 147.673 43.9093 147.835 43.7662C147.997 43.6231 148.115 43.4582 148.19 43.2715C148.271 43.0849 148.311 42.8858 148.311 42.6742C148.311 42.4129 148.24 42.1982 148.097 42.0302C147.96 41.856 147.776 41.7098 147.546 41.5915C147.316 41.4671 147.051 41.3613 146.753 41.2742C146.46 41.1809 146.158 41.0844 145.847 40.9849C145.542 40.8853 145.241 40.7733 144.942 40.6489C144.649 40.5182 144.388 40.3564 144.158 40.1635C143.928 39.9706 143.741 39.7342 143.598 39.4542C143.461 39.168 143.393 38.8226 143.393 38.4182C143.393 38.0573 143.467 37.712 143.617 37.3822C143.766 37.0462 143.984 36.7538 144.27 36.5049C144.556 36.2498 144.908 36.0475 145.325 35.8982C145.741 35.7489 146.217 35.6742 146.753 35.6742C147.375 35.6742 147.932 35.7738 148.423 35.9729C148.921 36.1658 149.35 36.4333 149.711 36.7755L149.338 37.3822ZM162.282 45.2782C162.046 45.2782 161.897 45.1631 161.834 44.9329L161.685 43.7849C161.281 44.2764 160.817 44.6715 160.294 44.9702C159.778 45.2626 159.184 45.4089 158.512 45.4089C157.97 45.4089 157.479 45.3062 157.037 45.1009C156.595 44.8893 156.219 44.5813 155.908 44.1769C155.597 43.7724 155.357 43.2684 155.189 42.6649C155.021 42.0613 154.937 41.3675 154.937 40.5835C154.937 39.8866 155.03 39.2395 155.217 38.6422C155.404 38.0386 155.671 37.516 156.02 37.0742C156.374 36.6324 156.804 36.2871 157.308 36.0382C157.812 35.7831 158.384 35.6555 159.025 35.6555C159.604 35.6555 160.098 35.7551 160.509 35.9542C160.92 36.1471 161.287 36.4209 161.61 36.7755V31.5302H163.272V45.2782H162.282ZM159.062 44.0649C159.604 44.0649 160.077 43.9404 160.481 43.6915C160.892 43.4426 161.268 43.0911 161.61 42.6369V38.0635C161.305 37.6529 160.969 37.3666 160.602 37.2049C160.241 37.0369 159.84 36.9529 159.398 36.9529C158.515 36.9529 157.837 37.2671 157.364 37.8955C156.891 38.524 156.654 39.42 156.654 40.5835C156.654 41.1995 156.707 41.7284 156.813 42.1702C156.919 42.6058 157.074 42.9666 157.28 43.2529C157.485 43.5329 157.737 43.7382 158.036 43.8689C158.334 43.9995 158.677 44.0649 159.062 44.0649ZM172.999 45.2782H172.261C172.1 45.2782 171.969 45.2533 171.869 45.2035C171.77 45.1538 171.705 45.048 171.673 44.8862L171.487 44.0089C171.238 44.2329 170.995 44.4351 170.759 44.6155C170.522 44.7898 170.273 44.9391 170.012 45.0635C169.751 45.1818 169.471 45.272 169.172 45.3342C168.88 45.3964 168.553 45.4275 168.192 45.4275C167.825 45.4275 167.48 45.3778 167.156 45.2782C166.839 45.1724 166.562 45.0169 166.325 44.8115C166.089 44.6062 165.899 44.348 165.756 44.0369C165.619 43.7195 165.551 43.3462 165.551 42.9169C165.551 42.5435 165.653 42.1858 165.859 41.8435C166.064 41.4951 166.394 41.1871 166.848 40.9195C167.309 40.652 167.909 40.4342 168.649 40.2662C169.39 40.092 170.295 39.9924 171.365 39.9675V39.2302C171.365 38.496 171.207 37.9422 170.889 37.5689C170.578 37.1893 170.115 36.9995 169.499 36.9995C169.094 36.9995 168.752 37.0524 168.472 37.1582C168.198 37.2578 167.959 37.3729 167.753 37.5035C167.554 37.628 167.38 37.7431 167.231 37.8489C167.088 37.9484 166.945 37.9982 166.801 37.9982C166.689 37.9982 166.59 37.9702 166.503 37.9142C166.422 37.852 166.357 37.7773 166.307 37.6902L166.008 37.1582C166.531 36.6542 167.094 36.2778 167.697 36.0289C168.301 35.78 168.97 35.6555 169.704 35.6555C170.233 35.6555 170.703 35.7426 171.113 35.9169C171.524 36.0911 171.869 36.3338 172.149 36.6449C172.429 36.956 172.641 37.3324 172.784 37.7742C172.927 38.216 172.999 38.7013 172.999 39.2302V45.2782ZM168.687 44.2609C168.979 44.2609 169.247 44.2329 169.489 44.1769C169.732 44.1146 169.959 44.0306 170.171 43.9249C170.389 43.8129 170.594 43.6791 170.787 43.5235C170.986 43.368 171.179 43.1906 171.365 42.9915V41.0222C170.6 41.0471 169.95 41.1093 169.415 41.2089C168.88 41.3022 168.444 41.4266 168.108 41.5822C167.772 41.7378 167.526 41.9213 167.371 42.1329C167.221 42.3444 167.147 42.5809 167.147 42.8422C167.147 43.0911 167.187 43.3058 167.268 43.4862C167.349 43.6666 167.458 43.816 167.595 43.9342C167.732 44.0462 167.893 44.1302 168.08 44.1862C168.267 44.236 168.469 44.2609 168.687 44.2609ZM182.17 45.2782C181.934 45.2782 181.785 45.1631 181.722 44.9329L181.573 43.7849C181.169 44.2764 180.705 44.6715 180.182 44.9702C179.666 45.2626 179.072 45.4089 178.4 45.4089C177.858 45.4089 177.367 45.3062 176.925 45.1009C176.483 44.8893 176.107 44.5813 175.796 44.1769C175.485 43.7724 175.245 43.2684 175.077 42.6649C174.909 42.0613 174.825 41.3675 174.825 40.5835C174.825 39.8866 174.918 39.2395 175.105 38.6422C175.292 38.0386 175.559 37.516 175.908 37.0742C176.262 36.6324 176.692 36.2871 177.196 36.0382C177.7 35.7831 178.272 35.6555 178.913 35.6555C179.492 35.6555 179.986 35.7551 180.397 35.9542C180.808 36.1471 181.175 36.4209 181.498 36.7755V31.5302H183.16V45.2782H182.17ZM178.95 44.0649C179.492 44.0649 179.965 43.9404 180.369 43.6915C180.78 43.4426 181.156 43.0911 181.498 42.6369V38.0635C181.193 37.6529 180.857 37.3666 180.49 37.2049C180.129 37.0369 179.728 36.9529 179.286 36.9529C178.403 36.9529 177.725 37.2671 177.252 37.8955C176.779 38.524 176.542 39.42 176.542 40.5835C176.542 41.1995 176.595 41.7284 176.701 42.1702C176.807 42.6058 176.962 42.9666 177.168 43.2529C177.373 43.5329 177.625 43.7382 177.924 43.8689C178.222 43.9995 178.565 44.0649 178.95 44.0649ZM189.769 35.6742C190.46 35.6742 191.082 35.7893 191.636 36.0195C192.196 36.2498 192.669 36.5764 193.055 36.9995C193.447 37.4226 193.745 37.936 193.951 38.5395C194.162 39.1369 194.268 39.8058 194.268 40.5462C194.268 41.2929 194.162 41.9649 193.951 42.5622C193.745 43.1595 193.447 43.6698 193.055 44.0929C192.669 44.516 192.196 44.8426 191.636 45.0729C191.082 45.2969 190.46 45.4089 189.769 45.4089C189.079 45.4089 188.453 45.2969 187.893 45.0729C187.34 44.8426 186.867 44.516 186.475 44.0929C186.083 43.6698 185.781 43.1595 185.569 42.5622C185.358 41.9649 185.252 41.2929 185.252 40.5462C185.252 39.8058 185.358 39.1369 185.569 38.5395C185.781 37.936 186.083 37.4226 186.475 36.9995C186.867 36.5764 187.34 36.2498 187.893 36.0195C188.453 35.7893 189.079 35.6742 189.769 35.6742ZM189.769 44.1115C190.703 44.1115 191.4 43.8004 191.86 43.1782C192.321 42.5498 192.551 41.6755 192.551 40.5555C192.551 39.4293 192.321 38.552 191.86 37.9235C191.4 37.2951 190.703 36.9809 189.769 36.9809C189.297 36.9809 188.886 37.0618 188.537 37.2235C188.189 37.3853 187.897 37.6186 187.66 37.9235C187.43 38.2284 187.256 38.6049 187.137 39.0529C187.025 39.4946 186.969 39.9955 186.969 40.5555C186.969 41.1155 187.025 41.6164 187.137 42.0582C187.256 42.5 187.43 42.8733 187.66 43.1782C187.897 43.4769 188.189 43.7071 188.537 43.8689C188.886 44.0306 189.297 44.1115 189.769 44.1115ZM201.729 37.3822C201.654 37.5191 201.539 37.5875 201.383 37.5875C201.29 37.5875 201.184 37.5533 201.066 37.4849C200.948 37.4164 200.801 37.3418 200.627 37.2609C200.459 37.1738 200.257 37.096 200.021 37.0275C199.784 36.9529 199.504 36.9155 199.181 36.9155C198.901 36.9155 198.649 36.9529 198.425 37.0275C198.201 37.096 198.008 37.1924 197.846 37.3169C197.69 37.4413 197.569 37.5875 197.482 37.7555C197.401 37.9173 197.361 38.0946 197.361 38.2875C197.361 38.5302 197.429 38.7324 197.566 38.8942C197.709 39.056 197.896 39.196 198.126 39.3142C198.356 39.4324 198.617 39.5382 198.91 39.6315C199.202 39.7186 199.501 39.8151 199.806 39.9209C200.117 40.0204 200.419 40.1324 200.711 40.2569C201.004 40.3813 201.265 40.5369 201.495 40.7235C201.725 40.9102 201.909 41.1404 202.046 41.4142C202.189 41.6818 202.261 42.0053 202.261 42.3849C202.261 42.8204 202.183 43.2249 202.027 43.5982C201.872 43.9653 201.641 44.2858 201.337 44.5595C201.032 44.8271 200.658 45.0386 200.217 45.1942C199.775 45.3498 199.265 45.4275 198.686 45.4275C198.026 45.4275 197.429 45.3218 196.894 45.1102C196.359 44.8924 195.904 44.6155 195.531 44.2795L195.923 43.6449C195.973 43.564 196.032 43.5018 196.1 43.4582C196.169 43.4146 196.259 43.3929 196.371 43.3929C196.483 43.3929 196.601 43.4364 196.726 43.5235C196.85 43.6106 197 43.7071 197.174 43.8129C197.354 43.9186 197.569 44.0151 197.818 44.1022C198.073 44.1893 198.39 44.2329 198.77 44.2329C199.093 44.2329 199.377 44.1924 199.619 44.1115C199.862 44.0244 200.064 43.9093 200.226 43.7662C200.388 43.6231 200.506 43.4582 200.581 43.2715C200.661 43.0849 200.702 42.8858 200.702 42.6742C200.702 42.4129 200.63 42.1982 200.487 42.0302C200.35 41.856 200.167 41.7098 199.937 41.5915C199.706 41.4671 199.442 41.3613 199.143 41.2742C198.851 41.1809 198.549 41.0844 198.238 40.9849C197.933 40.8853 197.631 40.7733 197.333 40.6489C197.04 40.5182 196.779 40.3564 196.548 40.1635C196.318 39.9706 196.132 39.7342 195.988 39.4542C195.852 39.168 195.783 38.8226 195.783 38.4182C195.783 38.0573 195.858 37.712 196.007 37.3822C196.156 37.0462 196.374 36.7538 196.66 36.5049C196.947 36.2498 197.298 36.0475 197.715 35.8982C198.132 35.7489 198.608 35.6742 199.143 35.6742C199.765 35.6742 200.322 35.7738 200.814 35.9729C201.312 36.1658 201.741 36.4333 202.102 36.7755L201.729 37.3822ZM115.806 59.2235V57.3849C115.806 57.2666 115.812 57.1546 115.825 57.0489C115.843 56.9431 115.874 56.8404 115.918 56.7409C115.794 56.8964 115.629 57.0364 115.423 57.1609L113.818 58.0849L113.407 57.3849L115.013 56.4515C115.237 56.3209 115.464 56.2462 115.694 56.2275C115.57 56.2151 115.451 56.1933 115.339 56.1622C115.234 56.1249 115.125 56.0689 115.013 55.9942L113.398 55.0515L113.809 54.3515L115.423 55.2849C115.641 55.4093 115.818 55.5711 115.955 55.7702C115.899 55.6582 115.859 55.5462 115.834 55.4342C115.815 55.316 115.806 55.1946 115.806 55.0702V53.2222H116.627V55.0609C116.627 55.316 116.584 55.54 116.497 55.7329C116.565 55.6395 116.64 55.5586 116.721 55.4902C116.808 55.4218 116.904 55.3533 117.01 55.2849L118.615 54.3609L119.026 55.0609L117.421 55.9942C117.315 56.0626 117.209 56.1155 117.103 56.1529C117.004 56.1902 116.898 56.2151 116.786 56.2275C116.898 56.24 117.004 56.2649 117.103 56.3022C117.209 56.3333 117.315 56.3831 117.421 56.4515L119.035 57.3942L118.625 58.0942L117.01 57.1609C116.898 57.0924 116.798 57.024 116.711 56.9555C116.624 56.8871 116.546 56.8031 116.478 56.7035C116.578 56.9089 116.627 57.1329 116.627 57.3755V59.2235H115.806ZM119.25 60.9782H123.861V62.3875H119.25V60.9782ZM125.722 60.9782H130.332V62.3875H125.722V60.9782ZM132.193 60.9782H136.804V62.3875H132.193V60.9782ZM138.664 60.9782H143.275V62.3875H138.664V60.9782ZM145.136 60.9782H149.746V62.3875H145.136V60.9782ZM151.607 60.9782H156.218V62.3875H151.607V60.9782ZM158.079 60.9782H162.689V62.3875H158.079V60.9782ZM164.55 60.9782H169.161V62.3875H164.55V60.9782ZM171.021 60.9782H175.632V62.3875H171.021V60.9782ZM177.493 60.9782H182.103V62.3875H177.493V60.9782ZM183.964 60.9782H188.575V62.3875H183.964V60.9782ZM190.435 60.9782H195.046V62.3875H190.435V60.9782ZM196.907 60.9782H201.517V62.3875H196.907V60.9782ZM203.378 60.9782H207.989V62.3875H203.378V60.9782ZM209.849 60.9782H214.46V62.3875H209.849V60.9782ZM216.321 60.9782H220.931V62.3875H216.321V60.9782ZM222.792 60.9782H227.403V62.3875H222.792V60.9782ZM229.263 60.9782H233.874V62.3875H229.263V60.9782ZM235.735 60.9782H240.345V62.3875H235.735V60.9782ZM242.206 60.9782H246.817V62.3875H242.206V60.9782ZM248.678 60.9782H253.288V62.3875H248.678V60.9782ZM255.149 60.9782H259.76V62.3875H255.149V60.9782ZM261.62 60.9782H266.231V62.3875H261.62V60.9782ZM268.092 60.9782H272.702V62.3875H268.092V60.9782ZM274.563 60.9782H279.174V62.3875H274.563V60.9782ZM281.034 60.9782H285.645V62.3875H281.034V60.9782ZM287.506 60.9782H292.116V62.3875H287.506V60.9782ZM293.977 60.9782H298.588V62.3875H293.977V60.9782ZM300.448 60.9782H305.059V62.3875H300.448V60.9782ZM115.806 81.2235V79.3849C115.806 79.2666 115.812 79.1546 115.825 79.0489C115.843 78.9431 115.874 78.8404 115.918 78.7409C115.794 78.8964 115.629 79.0364 115.423 79.1609L113.818 80.0849L113.407 79.3849L115.013 78.4515C115.237 78.3209 115.464 78.2462 115.694 78.2275C115.57 78.2151 115.451 78.1933 115.339 78.1622C115.234 78.1249 115.125 78.0689 115.013 77.9942L113.398 77.0515L113.809 76.3515L115.423 77.2849C115.641 77.4093 115.818 77.5711 115.955 77.7702C115.899 77.6582 115.859 77.5462 115.834 77.4342C115.815 77.316 115.806 77.1946 115.806 77.0702V75.2222H116.627V77.0609C116.627 77.316 116.584 77.54 116.497 77.7329C116.565 77.6395 116.64 77.5586 116.721 77.4902C116.808 77.4218 116.904 77.3533 117.01 77.2849L118.615 76.3609L119.026 77.0609L117.421 77.9942C117.315 78.0626 117.209 78.1155 117.103 78.1529C117.004 78.1902 116.898 78.2151 116.786 78.2275C116.898 78.24 117.004 78.2649 117.103 78.3022C117.209 78.3333 117.315 78.3831 117.421 78.4515L119.035 79.3942L118.625 80.0942L117.01 79.1609C116.898 79.0924 116.798 79.024 116.711 78.9555C116.624 78.8871 116.546 78.8031 116.478 78.7035C116.578 78.9089 116.627 79.1329 116.627 79.3755V81.2235H115.806ZM119.25 82.9782H123.861V84.3875H119.25V82.9782ZM125.722 82.9782H130.332V84.3875H125.722V82.9782ZM132.193 82.9782H136.804V84.3875H132.193V82.9782ZM138.664 82.9782H143.275V84.3875H138.664V82.9782ZM145.136 82.9782H149.746V84.3875H145.136V82.9782ZM151.607 82.9782H156.218V84.3875H151.607V82.9782ZM158.079 82.9782H162.689V84.3875H158.079V82.9782ZM164.55 82.9782H169.161V84.3875H164.55V82.9782ZM171.021 82.9782H175.632V84.3875H171.021V82.9782ZM177.493 82.9782H182.103V84.3875H177.493V82.9782ZM183.964 82.9782H188.575V84.3875H183.964V82.9782ZM190.435 82.9782H195.046V84.3875H190.435V82.9782ZM196.907 82.9782H201.517V84.3875H196.907V82.9782ZM203.378 82.9782H207.989V84.3875H203.378V82.9782ZM209.849 82.9782H214.46V84.3875H209.849V82.9782ZM216.321 82.9782H220.931V84.3875H216.321V82.9782ZM222.792 82.9782H227.403V84.3875H222.792V82.9782ZM229.263 82.9782H233.874V84.3875H229.263V82.9782ZM235.735 82.9782H240.345V84.3875H235.735V82.9782ZM242.206 82.9782H246.817V84.3875H242.206V82.9782ZM248.678 82.9782H253.288V84.3875H248.678V82.9782ZM255.149 82.9782H259.76V84.3875H255.149V82.9782ZM261.62 82.9782H266.231V84.3875H261.62V82.9782ZM268.092 82.9782H272.702V84.3875H268.092V82.9782ZM274.563 82.9782H279.174V84.3875H274.563V82.9782ZM281.034 82.9782H285.645V84.3875H281.034V82.9782ZM287.506 82.9782H292.116V84.3875H287.506V82.9782ZM293.977 82.9782H298.588V84.3875H293.977V82.9782ZM300.448 82.9782H305.059V84.3875H300.448V82.9782ZM115.806 103.224V101.385C115.806 101.267 115.812 101.155 115.825 101.049C115.843 100.943 115.874 100.84 115.918 100.741C115.794 100.896 115.629 101.036 115.423 101.161L113.818 102.085L113.407 101.385L115.013 100.452C115.237 100.321 115.464 100.246 115.694 100.228C115.57 100.215 115.451 100.193 115.339 100.162C115.234 100.125 115.125 100.069 115.013 99.9942L113.398 99.0515L113.809 98.3515L115.423 99.2849C115.641 99.4093 115.818 99.5711 115.955 99.7702C115.899 99.6582 115.859 99.5462 115.834 99.4342C115.815 99.316 115.806 99.1946 115.806 99.0702V97.2222H116.627V99.0609C116.627 99.316 116.584 99.54 116.497 99.7329C116.565 99.6395 116.64 99.5586 116.721 99.4902C116.808 99.4218 116.904 99.3533 117.01 99.2849L118.615 98.3609L119.026 99.0609L117.421 99.9942C117.315 100.063 117.209 100.116 117.103 100.153C117.004 100.19 116.898 100.215 116.786 100.228C116.898 100.24 117.004 100.265 117.103 100.302C117.209 100.333 117.315 100.383 117.421 100.452L119.035 101.394L118.625 102.094L117.01 101.161C116.898 101.092 116.798 101.024 116.711 100.956C116.624 100.887 116.546 100.803 116.478 100.704C116.578 100.909 116.627 101.133 116.627 101.376V103.224H115.806ZM119.25 104.978H123.861V106.388H119.25V104.978ZM125.722 104.978H130.332V106.388H125.722V104.978ZM132.193 104.978H136.804V106.388H132.193V104.978ZM138.664 104.978H143.275V106.388H138.664V104.978ZM145.136 104.978H149.746V106.388H145.136V104.978ZM151.607 104.978H156.218V106.388H151.607V104.978ZM158.079 104.978H162.689V106.388H158.079V104.978ZM164.55 104.978H169.161V106.388H164.55V104.978ZM171.021 104.978H175.632V106.388H171.021V104.978ZM177.493 104.978H182.103V106.388H177.493V104.978ZM183.964 104.978H188.575V106.388H183.964V104.978ZM190.435 104.978H195.046V106.388H190.435V104.978ZM196.907 104.978H201.517V106.388H196.907V104.978ZM203.378 104.978H207.989V106.388H203.378V104.978ZM209.849 104.978H214.46V106.388H209.849V104.978ZM216.321 104.978H220.931V106.388H216.321V104.978ZM222.792 104.978H227.403V106.388H222.792V104.978ZM229.263 104.978H233.874V106.388H229.263V104.978ZM235.735 104.978H240.345V106.388H235.735V104.978ZM242.206 104.978H246.817V106.388H242.206V104.978ZM248.678 104.978H253.288V106.388H248.678V104.978ZM255.149 104.978H259.76V106.388H255.149V104.978ZM261.62 104.978H266.231V106.388H261.62V104.978ZM268.092 104.978H272.702V106.388H268.092V104.978ZM274.563 104.978H279.174V106.388H274.563V104.978ZM281.034 104.978H285.645V106.388H281.034V104.978ZM287.506 104.978H292.116V106.388H287.506V104.978ZM293.977 104.978H298.588V106.388H293.977V104.978ZM300.448 104.978H305.059V106.388H300.448V104.978Z" fill="#FFDE00"/>
<path d="M32.9333 133.7H37.544V135.109H32.9333V133.7ZM39.4047 133.7H44.0154V135.109H39.4047V133.7ZM45.8761 133.7H50.4868V135.109H45.8761V133.7ZM52.3474 133.7H56.9581V135.109H52.3474V133.7ZM58.8188 133.7H63.4295V135.109H58.8188V133.7ZM65.2902 133.7H69.9009V135.109H65.2902V133.7ZM71.7616 133.7H76.3722V135.109H71.7616V133.7ZM78.2329 133.7H82.8436V135.109H78.2329V133.7ZM84.7043 133.7H89.315V135.109H84.7043V133.7ZM91.1757 133.7H95.7863V135.109H91.1757V133.7ZM97.647 133.7H102.258V135.109H97.647V133.7ZM104.118 133.7H108.729V135.109H104.118V133.7ZM110.59 133.7H115.2V135.109H110.59V133.7ZM117.061 133.7H121.672V135.109H117.061V133.7ZM123.533 133.7H128.143V135.109H123.533V133.7ZM130.004 133.7H134.615V135.109H130.004V133.7ZM136.475 133.7H141.086V135.109H136.475V133.7ZM142.947 133.7H147.557V135.109H142.947V133.7ZM149.418 133.7H154.029V135.109H149.418V133.7ZM155.889 133.7H160.5V135.109H155.889V133.7ZM162.361 133.7H166.971V135.109H162.361V133.7ZM168.832 133.7H173.443V135.109H168.832V133.7ZM175.303 133.7H179.914V135.109H175.303V133.7ZM181.775 133.7H186.386V135.109H181.775V133.7ZM188.246 133.7H192.857V135.109H188.246V133.7ZM194.718 133.7H199.328V135.109H194.718V133.7ZM201.189 133.7H205.8V135.109H201.189V133.7ZM207.66 133.7H212.271V135.109H207.66V133.7ZM214.132 133.7H218.742V135.109H214.132V133.7ZM220.603 133.7H225.214V135.109H220.603V133.7ZM227.074 133.7H231.685V135.109H227.074V133.7ZM233.546 133.7H238.156V135.109H233.546V133.7ZM240.017 133.7H244.628V135.109H240.017V133.7ZM246.489 133.7H251.099V135.109H246.489V133.7ZM252.96 133.7H257.571V135.109H252.96V133.7ZM259.431 133.7H264.042V135.109H259.431V133.7ZM265.903 133.7H270.513V135.109H265.903V133.7ZM272.374 133.7H276.985V135.109H272.374V133.7ZM278.845 133.7H283.456V135.109H278.845V133.7ZM285.317 133.7H289.927V135.109H285.317V133.7ZM291.788 133.7H296.399V135.109H291.788V133.7ZM298.259 133.7H302.87V135.109H298.259V133.7ZM32.9333 155.7H37.544V157.109H32.9333V155.7ZM39.4047 155.7H44.0154V157.109H39.4047V155.7ZM45.8761 155.7H50.4868V157.109H45.8761V155.7ZM52.3474 155.7H56.9581V157.109H52.3474V155.7ZM58.8188 155.7H63.4295V157.109H58.8188V155.7ZM65.2902 155.7H69.9009V157.109H65.2902V155.7ZM71.7616 155.7H76.3722V157.109H71.7616V155.7ZM78.2329 155.7H82.8436V157.109H78.2329V155.7ZM84.7043 155.7H89.315V157.109H84.7043V155.7ZM91.1757 155.7H95.7863V157.109H91.1757V155.7ZM97.647 155.7H102.258V157.109H97.647V155.7ZM104.118 155.7H108.729V157.109H104.118V155.7ZM110.59 155.7H115.2V157.109H110.59V155.7ZM117.061 155.7H121.672V157.109H117.061V155.7ZM123.533 155.7H128.143V157.109H123.533V155.7ZM130.004 155.7H134.615V157.109H130.004V155.7ZM136.475 155.7H141.086V157.109H136.475V155.7ZM142.947 155.7H147.557V157.109H142.947V155.7ZM149.418 155.7H154.029V157.109H149.418V155.7ZM155.889 155.7H160.5V157.109H155.889V155.7ZM162.361 155.7H166.971V157.109H162.361V155.7ZM168.832 155.7H173.443V157.109H168.832V155.7ZM175.303 155.7H179.914V157.109H175.303V155.7ZM181.775 155.7H186.386V157.109H181.775V155.7ZM188.246 155.7H192.857V157.109H188.246V155.7ZM194.718 155.7H199.328V157.109H194.718V155.7ZM201.189 155.7H205.8V157.109H201.189V155.7ZM207.66 155.7H212.271V157.109H207.66V155.7ZM214.132 155.7H218.742V157.109H214.132V155.7ZM220.603 155.7H225.214V157.109H220.603V155.7ZM227.074 155.7H231.685V157.109H227.074V155.7ZM233.546 155.7H238.156V157.109H233.546V155.7ZM240.017 155.7H244.628V157.109H240.017V155.7ZM246.489 155.7H251.099V157.109H246.489V155.7ZM252.96 155.7H257.571V157.109H252.96V155.7ZM259.431 155.7H264.042V157.109H259.431V155.7ZM265.903 155.7H270.513V157.109H265.903V155.7ZM272.374 155.7H276.985V157.109H272.374V155.7ZM278.845 155.7H283.456V157.109H278.845V155.7ZM285.317 155.7H289.927V157.109H285.317V155.7ZM291.788 155.7H296.399V157.109H291.788V155.7ZM298.259 155.7H302.87V157.109H298.259V155.7ZM32.9333 177.7H37.544V179.109H32.9333V177.7ZM39.4047 177.7H44.0154V179.109H39.4047V177.7ZM45.8761 177.7H50.4868V179.109H45.8761V177.7ZM52.3474 177.7H56.9581V179.109H52.3474V177.7ZM58.8188 177.7H63.4295V179.109H58.8188V177.7ZM65.2902 177.7H69.9009V179.109H65.2902V177.7ZM71.7616 177.7H76.3722V179.109H71.7616V177.7ZM78.2329 177.7H82.8436V179.109H78.2329V177.7ZM84.7043 177.7H89.315V179.109H84.7043V177.7ZM91.1757 177.7H95.7863V179.109H91.1757V177.7ZM97.647 177.7H102.258V179.109H97.647V177.7ZM104.118 177.7H108.729V179.109H104.118V177.7ZM110.59 177.7H115.2V179.109H110.59V177.7ZM117.061 177.7H121.672V179.109H117.061V177.7ZM123.533 177.7H128.143V179.109H123.533V177.7ZM130.004 177.7H134.615V179.109H130.004V177.7ZM136.475 177.7H141.086V179.109H136.475V177.7ZM142.947 177.7H147.557V179.109H142.947V177.7ZM149.418 177.7H154.029V179.109H149.418V177.7ZM155.889 177.7H160.5V179.109H155.889V177.7ZM162.361 177.7H166.971V179.109H162.361V177.7ZM168.832 177.7H173.443V179.109H168.832V177.7ZM175.303 177.7H179.914V179.109H175.303V177.7ZM181.775 177.7H186.386V179.109H181.775V177.7ZM188.246 177.7H192.857V179.109H188.246V177.7ZM194.718 177.7H199.328V179.109H194.718V177.7ZM201.189 177.7H205.8V179.109H201.189V177.7ZM207.66 177.7H212.271V179.109H207.66V177.7ZM214.132 177.7H218.742V179.109H214.132V177.7ZM220.603 177.7H225.214V179.109H220.603V177.7ZM227.074 177.7H231.685V179.109H227.074V177.7ZM233.546 177.7H238.156V179.109H233.546V177.7ZM240.017 177.7H244.628V179.109H240.017V177.7ZM246.489 177.7H251.099V179.109H246.489V177.7ZM252.96 177.7H257.571V179.109H252.96V177.7ZM259.431 177.7H264.042V179.109H259.431V177.7ZM265.903 177.7H270.513V179.109H265.903V177.7ZM272.374 177.7H276.985V179.109H272.374V177.7ZM278.845 177.7H283.456V179.109H278.845V177.7ZM285.317 177.7H289.927V179.109H285.317V177.7ZM291.788 177.7H296.399V179.109H291.788V177.7ZM298.259 177.7H302.87V179.109H298.259V177.7Z" fill="#FFDE00"/>
</g>
<defs>
<clipPath id="clip0_6_216">
<rect width="321" height="205" fill="white"/>
</clipPath>
</defs>
</svg>
