<svg width="285" height="194" viewBox="0 0 285 194" fill="none" xmlns="http://www.w3.org/2000/svg">
<g clip-path="url(#clip0_8_150)">
<path d="M284.305 0H0.0102539V194H284.305V0Z" fill="black"/>
<path d="M285 -3H0V40H285V-3Z" fill="#FFDE00"/>
<path d="M9.93334 51.7H14.544V53.1093H9.93334V51.7ZM16.4047 51.7H21.0154V53.1093H16.4047V51.7ZM22.8761 51.7H27.4868V53.1093H22.8761V51.7ZM29.3474 51.7H33.9581V53.1093H29.3474V51.7ZM35.8188 51.7H40.4295V53.1093H35.8188V51.7ZM42.2902 51.7H46.9009V53.1093H42.2902V51.7ZM48.7616 51.7H53.3722V53.1093H48.7616V51.7ZM55.2329 51.7H59.8436V53.1093H55.2329V51.7ZM61.7043 51.7H66.315V53.1093H61.7043V51.7ZM68.1757 51.7H72.7863V53.1093H68.1757V51.7ZM74.647 51.7H79.2577V53.1093H74.647V51.7ZM81.1184 51.7H85.7291V53.1093H81.1184V51.7ZM87.5898 51.7H92.2004V53.1093H87.5898V51.7ZM94.0611 51.7H98.6718V53.1093H94.0611V51.7ZM100.533 51.7H105.143V53.1093H100.533V51.7ZM107.004 51.7H111.615V53.1093H107.004V51.7ZM113.475 51.7H118.086V53.1093H113.475V51.7ZM119.947 51.7H124.557V53.1093H119.947V51.7ZM126.418 51.7H131.029V53.1093H126.418V51.7ZM132.889 51.7H137.5V53.1093H132.889V51.7ZM139.361 51.7H143.971V53.1093H139.361V51.7ZM145.832 51.7H150.443V53.1093H145.832V51.7ZM152.303 51.7H156.914V53.1093H152.303V51.7ZM158.775 51.7H163.386V53.1093H158.775V51.7ZM165.246 51.7H169.857V53.1093H165.246V51.7ZM171.718 51.7H176.328V53.1093H171.718V51.7ZM178.189 51.7H182.8V53.1093H178.189V51.7ZM184.66 51.7H189.271V53.1093H184.66V51.7ZM191.132 51.7H195.742V53.1093H191.132V51.7ZM197.603 51.7H202.214V53.1093H197.603V51.7ZM204.074 51.7H208.685V53.1093H204.074V51.7ZM210.546 51.7H215.156V53.1093H210.546V51.7ZM217.017 51.7H221.628V53.1093H217.017V51.7ZM223.489 51.7H228.099V53.1093H223.489V51.7ZM229.96 51.7H234.571V53.1093H229.96V51.7ZM236.431 51.7H241.042V53.1093H236.431V51.7ZM242.903 51.7H247.513V53.1093H242.903V51.7ZM249.374 51.7H253.985V53.1093H249.374V51.7ZM255.845 51.7H260.456V53.1093H255.845V51.7ZM262.317 51.7H266.927V53.1093H262.317V51.7ZM268.788 51.7H273.399V53.1093H268.788V51.7ZM9.93334 73.7H14.544V75.1093H9.93334V73.7ZM16.4047 73.7H21.0154V75.1093H16.4047V73.7ZM22.8761 73.7H27.4868V75.1093H22.8761V73.7ZM29.3474 73.7H33.9581V75.1093H29.3474V73.7ZM35.8188 73.7H40.4295V75.1093H35.8188V73.7ZM42.2902 73.7H46.9009V75.1093H42.2902V73.7ZM48.7616 73.7H53.3722V75.1093H48.7616V73.7ZM55.2329 73.7H59.8436V75.1093H55.2329V73.7ZM61.7043 73.7H66.315V75.1093H61.7043V73.7ZM68.1757 73.7H72.7863V75.1093H68.1757V73.7ZM74.647 73.7H79.2577V75.1093H74.647V73.7ZM81.1184 73.7H85.7291V75.1093H81.1184V73.7ZM87.5898 73.7H92.2004V75.1093H87.5898V73.7ZM94.0611 73.7H98.6718V75.1093H94.0611V73.7ZM100.533 73.7H105.143V75.1093H100.533V73.7ZM107.004 73.7H111.615V75.1093H107.004V73.7ZM113.475 73.7H118.086V75.1093H113.475V73.7ZM119.947 73.7H124.557V75.1093H119.947V73.7ZM126.418 73.7H131.029V75.1093H126.418V73.7ZM132.889 73.7H137.5V75.1093H132.889V73.7ZM139.361 73.7H143.971V75.1093H139.361V73.7ZM145.832 73.7H150.443V75.1093H145.832V73.7ZM152.303 73.7H156.914V75.1093H152.303V73.7ZM158.775 73.7H163.386V75.1093H158.775V73.7ZM165.246 73.7H169.857V75.1093H165.246V73.7ZM171.718 73.7H176.328V75.1093H171.718V73.7ZM178.189 73.7H182.8V75.1093H178.189V73.7ZM184.66 73.7H189.271V75.1093H184.66V73.7ZM191.132 73.7H195.742V75.1093H191.132V73.7ZM197.603 73.7H202.214V75.1093H197.603V73.7ZM204.074 73.7H208.685V75.1093H204.074V73.7ZM210.546 73.7H215.156V75.1093H210.546V73.7ZM217.017 73.7H221.628V75.1093H217.017V73.7ZM223.489 73.7H228.099V75.1093H223.489V73.7ZM229.96 73.7H234.571V75.1093H229.96V73.7ZM236.431 73.7H241.042V75.1093H236.431V73.7ZM242.903 73.7H247.513V75.1093H242.903V73.7ZM249.374 73.7H253.985V75.1093H249.374V73.7ZM255.845 73.7H260.456V75.1093H255.845V73.7ZM262.317 73.7H266.927V75.1093H262.317V73.7ZM268.788 73.7H273.399V75.1093H268.788V73.7ZM9.93334 95.7H14.544V97.1093H9.93334V95.7ZM16.4047 95.7H21.0154V97.1093H16.4047V95.7ZM22.8761 95.7H27.4868V97.1093H22.8761V95.7ZM29.3474 95.7H33.9581V97.1093H29.3474V95.7ZM35.8188 95.7H40.4295V97.1093H35.8188V95.7ZM42.2902 95.7H46.9009V97.1093H42.2902V95.7ZM48.7616 95.7H53.3722V97.1093H48.7616V95.7ZM55.2329 95.7H59.8436V97.1093H55.2329V95.7ZM61.7043 95.7H66.315V97.1093H61.7043V95.7ZM68.1757 95.7H72.7863V97.1093H68.1757V95.7ZM74.647 95.7H79.2577V97.1093H74.647V95.7ZM81.1184 95.7H85.7291V97.1093H81.1184V95.7ZM87.5898 95.7H92.2004V97.1093H87.5898V95.7ZM94.0611 95.7H98.6718V97.1093H94.0611V95.7ZM100.533 95.7H105.143V97.1093H100.533V95.7ZM107.004 95.7H111.615V97.1093H107.004V95.7ZM113.475 95.7H118.086V97.1093H113.475V95.7ZM119.947 95.7H124.557V97.1093H119.947V95.7ZM126.418 95.7H131.029V97.1093H126.418V95.7ZM132.889 95.7H137.5V97.1093H132.889V95.7ZM139.361 95.7H143.971V97.1093H139.361V95.7ZM145.832 95.7H150.443V97.1093H145.832V95.7ZM152.303 95.7H156.914V97.1093H152.303V95.7ZM158.775 95.7H163.386V97.1093H158.775V95.7ZM165.246 95.7H169.857V97.1093H165.246V95.7ZM171.718 95.7H176.328V97.1093H171.718V95.7ZM178.189 95.7H182.8V97.1093H178.189V95.7ZM184.66 95.7H189.271V97.1093H184.66V95.7ZM191.132 95.7H195.742V97.1093H191.132V95.7ZM197.603 95.7H202.214V97.1093H197.603V95.7ZM204.074 95.7H208.685V97.1093H204.074V95.7ZM210.546 95.7H215.156V97.1093H210.546V95.7ZM217.017 95.7H221.628V97.1093H217.017V95.7ZM223.489 95.7H228.099V97.1093H223.489V95.7ZM229.96 95.7H234.571V97.1093H229.96V95.7ZM236.431 95.7H241.042V97.1093H236.431V95.7ZM242.903 95.7H247.513V97.1093H242.903V95.7ZM249.374 95.7H253.985V97.1093H249.374V95.7ZM255.845 95.7H260.456V97.1093H255.845V95.7ZM262.317 95.7H266.927V97.1093H262.317V95.7ZM268.788 95.7H273.399V97.1093H268.788V95.7ZM9.93334 117.7H14.544V119.109H9.93334V117.7ZM16.4047 117.7H21.0154V119.109H16.4047V117.7ZM22.8761 117.7H27.4868V119.109H22.8761V117.7ZM29.3474 117.7H33.9581V119.109H29.3474V117.7ZM35.8188 117.7H40.4295V119.109H35.8188V117.7ZM42.2902 117.7H46.9009V119.109H42.2902V117.7ZM48.7616 117.7H53.3722V119.109H48.7616V117.7ZM55.2329 117.7H59.8436V119.109H55.2329V117.7ZM61.7043 117.7H66.315V119.109H61.7043V117.7ZM68.1757 117.7H72.7863V119.109H68.1757V117.7ZM74.647 117.7H79.2577V119.109H74.647V117.7ZM81.1184 117.7H85.7291V119.109H81.1184V117.7ZM87.5898 117.7H92.2004V119.109H87.5898V117.7ZM94.0611 117.7H98.6718V119.109H94.0611V117.7ZM100.533 117.7H105.143V119.109H100.533V117.7ZM107.004 117.7H111.615V119.109H107.004V117.7ZM113.475 117.7H118.086V119.109H113.475V117.7ZM119.947 117.7H124.557V119.109H119.947V117.7ZM126.418 117.7H131.029V119.109H126.418V117.7ZM132.889 117.7H137.5V119.109H132.889V117.7ZM139.361 117.7H143.971V119.109H139.361V117.7ZM145.832 117.7H150.443V119.109H145.832V117.7ZM152.303 117.7H156.914V119.109H152.303V117.7ZM158.775 117.7H163.386V119.109H158.775V117.7ZM165.246 117.7H169.857V119.109H165.246V117.7ZM171.718 117.7H176.328V119.109H171.718V117.7ZM178.189 117.7H182.8V119.109H178.189V117.7ZM184.66 117.7H189.271V119.109H184.66V117.7ZM191.132 117.7H195.742V119.109H191.132V117.7ZM197.603 117.7H202.214V119.109H197.603V117.7ZM204.074 117.7H208.685V119.109H204.074V117.7ZM210.546 117.7H215.156V119.109H210.546V117.7ZM217.017 117.7H221.628V119.109H217.017V117.7ZM223.489 117.7H228.099V119.109H223.489V117.7ZM229.96 117.7H234.571V119.109H229.96V117.7ZM236.431 117.7H241.042V119.109H236.431V117.7ZM242.903 117.7H247.513V119.109H242.903V117.7ZM249.374 117.7H253.985V119.109H249.374V117.7ZM255.845 117.7H260.456V119.109H255.845V117.7ZM262.317 117.7H266.927V119.109H262.317V117.7ZM268.788 117.7H273.399V119.109H268.788V117.7ZM9.93334 139.7H14.544V141.109H9.93334V139.7ZM16.4047 139.7H21.0154V141.109H16.4047V139.7ZM22.8761 139.7H27.4868V141.109H22.8761V139.7ZM29.3474 139.7H33.9581V141.109H29.3474V139.7ZM35.8188 139.7H40.4295V141.109H35.8188V139.7ZM42.2902 139.7H46.9009V141.109H42.2902V139.7ZM48.7616 139.7H53.3722V141.109H48.7616V139.7ZM55.2329 139.7H59.8436V141.109H55.2329V139.7ZM61.7043 139.7H66.315V141.109H61.7043V139.7ZM68.1757 139.7H72.7863V141.109H68.1757V139.7ZM74.647 139.7H79.2577V141.109H74.647V139.7ZM81.1184 139.7H85.7291V141.109H81.1184V139.7ZM87.5898 139.7H92.2004V141.109H87.5898V139.7ZM94.0611 139.7H98.6718V141.109H94.0611V139.7ZM100.533 139.7H105.143V141.109H100.533V139.7ZM107.004 139.7H111.615V141.109H107.004V139.7ZM113.475 139.7H118.086V141.109H113.475V139.7ZM119.947 139.7H124.557V141.109H119.947V139.7ZM126.418 139.7H131.029V141.109H126.418V139.7ZM132.889 139.7H137.5V141.109H132.889V139.7ZM139.361 139.7H143.971V141.109H139.361V139.7ZM145.832 139.7H150.443V141.109H145.832V139.7ZM152.303 139.7H156.914V141.109H152.303V139.7ZM158.775 139.7H163.386V141.109H158.775V139.7ZM165.246 139.7H169.857V141.109H165.246V139.7ZM171.718 139.7H176.328V141.109H171.718V139.7ZM178.189 139.7H182.8V141.109H178.189V139.7ZM184.66 139.7H189.271V141.109H184.66V139.7ZM191.132 139.7H195.742V141.109H191.132V139.7ZM197.603 139.7H202.214V141.109H197.603V139.7ZM204.074 139.7H208.685V141.109H204.074V139.7ZM210.546 139.7H215.156V141.109H210.546V139.7ZM217.017 139.7H221.628V141.109H217.017V139.7ZM223.489 139.7H228.099V141.109H223.489V139.7ZM229.96 139.7H234.571V141.109H229.96V139.7ZM236.431 139.7H241.042V141.109H236.431V139.7ZM242.903 139.7H247.513V141.109H242.903V139.7ZM249.374 139.7H253.985V141.109H249.374V139.7ZM255.845 139.7H260.456V141.109H255.845V139.7ZM262.317 139.7H266.927V141.109H262.317V139.7ZM268.788 139.7H273.399V141.109H268.788V139.7ZM9.93334 161.7H14.544V163.109H9.93334V161.7ZM16.4047 161.7H21.0154V163.109H16.4047V161.7ZM22.8761 161.7H27.4868V163.109H22.8761V161.7ZM29.3474 161.7H33.9581V163.109H29.3474V161.7ZM35.8188 161.7H40.4295V163.109H35.8188V161.7ZM42.2902 161.7H46.9009V163.109H42.2902V161.7ZM48.7616 161.7H53.3722V163.109H48.7616V161.7ZM55.2329 161.7H59.8436V163.109H55.2329V161.7ZM61.7043 161.7H66.315V163.109H61.7043V161.7ZM68.1757 161.7H72.7863V163.109H68.1757V161.7ZM74.647 161.7H79.2577V163.109H74.647V161.7ZM81.1184 161.7H85.7291V163.109H81.1184V161.7ZM87.5898 161.7H92.2004V163.109H87.5898V161.7ZM94.0611 161.7H98.6718V163.109H94.0611V161.7ZM100.533 161.7H105.143V163.109H100.533V161.7ZM107.004 161.7H111.615V163.109H107.004V161.7ZM113.475 161.7H118.086V163.109H113.475V161.7ZM119.947 161.7H124.557V163.109H119.947V161.7ZM126.418 161.7H131.029V163.109H126.418V161.7ZM132.889 161.7H137.5V163.109H132.889V161.7ZM139.361 161.7H143.971V163.109H139.361V161.7ZM145.832 161.7H150.443V163.109H145.832V161.7ZM152.303 161.7H156.914V163.109H152.303V161.7ZM158.775 161.7H163.386V163.109H158.775V161.7ZM165.246 161.7H169.857V163.109H165.246V161.7ZM171.718 161.7H176.328V163.109H171.718V161.7ZM178.189 161.7H182.8V163.109H178.189V161.7ZM184.66 161.7H189.271V163.109H184.66V161.7ZM191.132 161.7H195.742V163.109H191.132V161.7ZM197.603 161.7H202.214V163.109H197.603V161.7ZM204.074 161.7H208.685V163.109H204.074V161.7ZM210.546 161.7H215.156V163.109H210.546V161.7ZM217.017 161.7H221.628V163.109H217.017V161.7ZM223.489 161.7H228.099V163.109H223.489V161.7ZM229.96 161.7H234.571V163.109H229.96V161.7ZM236.431 161.7H241.042V163.109H236.431V161.7ZM242.903 161.7H247.513V163.109H242.903V161.7ZM249.374 161.7H253.985V163.109H249.374V161.7ZM255.845 161.7H260.456V163.109H255.845V161.7ZM262.317 161.7H266.927V163.109H262.317V161.7ZM268.788 161.7H273.399V163.109H268.788V161.7Z" fill="#FFDE00"/>
<path d="M32.528 11.656C32.432 11.816 32.3307 11.9387 32.224 12.024C32.1173 12.0987 31.9787 12.136 31.808 12.136C31.6267 12.136 31.4133 12.0453 31.168 11.864C30.9333 11.6827 30.6293 11.4853 30.256 11.272C29.8933 11.048 29.4507 10.8453 28.928 10.664C28.416 10.4827 27.792 10.392 27.056 10.392C26.3627 10.392 25.7493 10.488 25.216 10.68C24.6827 10.8613 24.2347 11.112 23.872 11.432C23.52 11.752 23.2533 12.1307 23.072 12.568C22.8907 12.9947 22.8 13.4587 22.8 13.96C22.8 14.6 22.9547 15.1333 23.264 15.56C23.584 15.976 24 16.3333 24.512 16.632C25.0347 16.9307 25.6213 17.192 26.272 17.416C26.9333 17.6293 27.6053 17.8533 28.288 18.088C28.9813 18.3227 29.6533 18.5893 30.304 18.888C30.9653 19.176 31.552 19.544 32.064 19.992C32.5867 20.44 33.0027 20.9893 33.312 21.64C33.632 22.2907 33.792 23.0907 33.792 24.04C33.792 25.0427 33.6213 25.9867 33.28 26.872C32.9387 27.7467 32.4373 28.5093 31.776 29.16C31.1253 29.8107 30.32 30.3227 29.36 30.696C28.4107 31.0693 27.328 31.256 26.112 31.256C24.6293 31.256 23.2747 30.9893 22.048 30.456C20.832 29.912 19.792 29.1813 18.928 28.264L19.824 26.792C19.9093 26.6747 20.0107 26.5787 20.128 26.504C20.256 26.4187 20.3947 26.376 20.544 26.376C20.768 26.376 21.024 26.4987 21.312 26.744C21.6 26.9787 21.9573 27.24 22.384 27.528C22.8213 27.816 23.344 28.0827 23.952 28.328C24.5707 28.5627 25.3227 28.68 26.208 28.68C26.944 28.68 27.6 28.5787 28.176 28.376C28.752 28.1733 29.2373 27.8907 29.632 27.528C30.0373 27.1547 30.3467 26.712 30.56 26.2C30.7733 25.688 30.88 25.1173 30.88 24.488C30.88 23.7947 30.72 23.2293 30.4 22.792C30.0907 22.344 29.68 21.9707 29.168 21.672C28.656 21.3733 28.0693 21.1227 27.408 20.92C26.7573 20.7067 26.0853 20.4933 25.392 20.28C24.7093 20.056 24.0373 19.8 23.376 19.512C22.7253 19.224 22.144 18.8507 21.632 18.392C21.12 17.9333 20.704 17.3627 20.384 16.68C20.0747 15.9867 19.92 15.1333 19.92 14.12C19.92 13.3093 20.0747 12.5253 20.384 11.768C20.704 11.0107 21.1627 10.3387 21.76 9.752C22.3573 9.16533 23.0933 8.696 23.968 8.344C24.8533 7.992 25.8667 7.816 27.008 7.816C28.288 7.816 29.456 8.01867 30.512 8.424C31.568 8.82933 32.4907 9.416 33.28 10.184L32.528 11.656ZM43.7208 14.536C44.6914 14.536 45.5874 14.7013 46.4088 15.032C47.2301 15.352 47.9394 15.8213 48.5368 16.44C49.1341 17.048 49.5981 17.8053 49.9288 18.712C50.2701 19.608 50.4408 20.632 50.4408 21.784C50.4408 22.232 50.3928 22.5307 50.2968 22.68C50.2008 22.8293 50.0194 22.904 49.7528 22.904H38.9688C38.9901 23.928 39.1288 24.8187 39.3848 25.576C39.6408 26.3333 39.9928 26.968 40.4408 27.48C40.8888 27.9813 41.4221 28.36 42.0408 28.616C42.6594 28.8613 43.3528 28.984 44.1208 28.984C44.8354 28.984 45.4488 28.904 45.9608 28.744C46.4834 28.5733 46.9314 28.392 47.3048 28.2C47.6781 28.008 47.9874 27.832 48.2328 27.672C48.4888 27.5013 48.7074 27.416 48.8888 27.416C49.1234 27.416 49.3048 27.5067 49.4328 27.688L50.2328 28.728C49.8808 29.1547 49.4594 29.528 48.9688 29.848C48.4781 30.1573 47.9501 30.4133 47.3848 30.616C46.8301 30.8187 46.2541 30.968 45.6568 31.064C45.0594 31.1707 44.4674 31.224 43.8808 31.224C42.7608 31.224 41.7261 31.0373 40.7768 30.664C39.8381 30.28 39.0221 29.7253 38.3288 29C37.6461 28.264 37.1128 27.3573 36.7288 26.28C36.3448 25.2027 36.1528 23.9653 36.1528 22.568C36.1528 21.4373 36.3234 20.3813 36.6648 19.4C37.0168 18.4187 37.5181 17.5707 38.1688 16.856C38.8194 16.1307 39.6141 15.5653 40.5528 15.16C41.4914 14.744 42.5474 14.536 43.7208 14.536ZM43.7847 16.632C42.4088 16.632 41.3261 17.032 40.5368 17.832C39.7474 18.6213 39.2568 19.72 39.0648 21.128H47.8808C47.8808 20.4667 47.7901 19.864 47.6088 19.32C47.4274 18.7653 47.1608 18.2907 46.8088 17.896C46.4568 17.4907 46.0248 17.1813 45.5128 16.968C45.0114 16.744 44.4354 16.632 43.7847 16.632ZM56.55 14.792V25.128C56.55 26.3547 56.8327 27.304 57.398 27.976C57.9633 28.648 58.8167 28.984 59.958 28.984C60.79 28.984 61.574 28.7867 62.31 28.392C63.046 27.9973 63.7233 27.448 64.342 26.744V14.792H67.19V31H65.494C65.0887 31 64.8327 30.8027 64.726 30.408L64.502 28.664C63.798 29.4427 63.0087 30.072 62.134 30.552C61.2593 31.0213 60.2567 31.256 59.126 31.256C58.2407 31.256 57.4567 31.112 56.774 30.824C56.102 30.5253 55.5367 30.1093 55.078 29.576C54.6193 29.0427 54.2727 28.3973 54.038 27.64C53.814 26.8827 53.702 26.0453 53.702 25.128V14.792H56.55ZM87.3348 17.464C87.2068 17.6987 87.0094 17.816 86.7428 17.816C86.5828 17.816 86.4014 17.7573 86.1988 17.64C85.9961 17.5227 85.7454 17.3947 85.4468 17.256C85.1588 17.1067 84.8121 16.9733 84.4068 16.856C84.0014 16.728 83.5214 16.664 82.9668 16.664C82.4868 16.664 82.0548 16.728 81.6708 16.856C81.2868 16.9733 80.9561 17.1387 80.6788 17.352C80.4121 17.5653 80.2041 17.816 80.0548 18.104C79.9161 18.3813 79.8468 18.6853 79.8468 19.016C79.8468 19.432 79.9641 19.7787 80.1988 20.056C80.4441 20.3333 80.7641 20.5733 81.1588 20.776C81.5534 20.9787 82.0014 21.16 82.5028 21.32C83.0041 21.4693 83.5161 21.6347 84.0388 21.816C84.5721 21.9867 85.0894 22.1787 85.5908 22.392C86.0921 22.6053 86.5401 22.872 86.9348 23.192C87.3294 23.512 87.6441 23.9067 87.8788 24.376C88.1241 24.8347 88.2468 25.3893 88.2468 26.04C88.2468 26.7867 88.1134 27.48 87.8468 28.12C87.5801 28.7493 87.1854 29.2987 86.6628 29.768C86.1401 30.2267 85.5001 30.5893 84.7428 30.856C83.9854 31.1227 83.1108 31.256 82.1188 31.256C80.9881 31.256 79.9641 31.0747 79.0468 30.712C78.1294 30.3387 77.3508 29.864 76.7108 29.288L77.3828 28.2C77.4681 28.0613 77.5694 27.9547 77.6868 27.88C77.8041 27.8053 77.9588 27.768 78.1508 27.768C78.3428 27.768 78.5454 27.8427 78.7588 27.992C78.9721 28.1413 79.2281 28.3067 79.5268 28.488C79.8361 28.6693 80.2041 28.8347 80.6308 28.984C81.0681 29.1333 81.6121 29.208 82.2628 29.208C82.8174 29.208 83.3028 29.1387 83.7188 29C84.1348 28.8507 84.4814 28.6533 84.7587 28.408C85.0361 28.1627 85.2388 27.88 85.3668 27.56C85.5054 27.24 85.5748 26.8987 85.5748 26.536C85.5748 26.088 85.4521 25.72 85.2068 25.432C84.9721 25.1333 84.6574 24.8827 84.2628 24.68C83.8681 24.4667 83.4148 24.2853 82.9028 24.136C82.4014 23.976 81.8841 23.8107 81.3508 23.64C80.8281 23.4693 80.3108 23.2773 79.7988 23.064C79.2974 22.84 78.8494 22.5627 78.4548 22.232C78.0601 21.9013 77.7401 21.496 77.4948 21.016C77.2601 20.5253 77.1428 19.9333 77.1428 19.24C77.1428 18.6213 77.2708 18.0293 77.5268 17.464C77.7828 16.888 78.1561 16.3867 78.6468 15.96C79.1374 15.5227 79.7401 15.176 80.4548 14.92C81.1694 14.664 81.9854 14.536 82.9028 14.536C83.9694 14.536 84.9241 14.7067 85.7668 15.048C86.6201 15.3787 87.3561 15.8373 87.9748 16.424L87.3348 17.464ZM95.0978 14.792V31H92.2498V14.792H95.0978ZM95.7378 9.704C95.7378 9.98133 95.6791 10.2427 95.5618 10.488C95.4551 10.7227 95.3058 10.936 95.1138 11.128C94.9324 11.3093 94.7191 11.4533 94.4738 11.56C94.2284 11.6667 93.9671 11.72 93.6898 11.72C93.4124 11.72 93.1511 11.6667 92.9058 11.56C92.6711 11.4533 92.4578 11.3093 92.2658 11.128C92.0844 10.936 91.9404 10.7227 91.8338 10.488C91.7271 10.2427 91.6738 9.98133 91.6738 9.704C91.6738 9.42666 91.7271 9.16533 91.8338 8.92C91.9404 8.664 92.0844 8.44533 92.2658 8.264C92.4578 8.072 92.6711 7.92267 92.9058 7.816C93.1511 7.70933 93.4124 7.656 93.6898 7.656C93.9671 7.656 94.2284 7.70933 94.4738 7.816C94.7191 7.92267 94.9324 8.072 95.1138 8.264C95.3058 8.44533 95.4551 8.664 95.5618 8.92C95.6791 9.16533 95.7378 9.42666 95.7378 9.704ZM105.029 31.256C103.749 31.256 102.763 30.8987 102.069 30.184C101.387 29.4693 101.045 28.44 101.045 27.096V17.176H99.0933C98.9226 17.176 98.7786 17.128 98.6613 17.032C98.5439 16.9253 98.4853 16.7653 98.4853 16.552V15.416L101.141 15.08L101.797 10.072C101.819 9.912 101.888 9.784 102.005 9.688C102.123 9.58133 102.272 9.528 102.453 9.528H103.893V15.112H108.533V17.176H103.893V26.904C103.893 27.5867 104.059 28.0933 104.389 28.424C104.72 28.7547 105.147 28.92 105.669 28.92C105.968 28.92 106.224 28.8827 106.437 28.808C106.661 28.7227 106.853 28.632 107.013 28.536C107.173 28.44 107.307 28.3547 107.413 28.28C107.531 28.1947 107.632 28.152 107.717 28.152C107.867 28.152 108 28.2427 108.117 28.424L108.949 29.784C108.459 30.2427 107.867 30.6053 107.173 30.872C106.48 31.128 105.765 31.256 105.029 31.256ZM118.471 14.536C119.441 14.536 120.337 14.7013 121.159 15.032C121.98 15.352 122.689 15.8213 123.287 16.44C123.884 17.048 124.348 17.8053 124.679 18.712C125.02 19.608 125.191 20.632 125.191 21.784C125.191 22.232 125.143 22.5307 125.047 22.68C124.951 22.8293 124.769 22.904 124.503 22.904H113.719C113.74 23.928 113.879 24.8187 114.135 25.576C114.391 26.3333 114.743 26.968 115.191 27.48C115.639 27.9813 116.172 28.36 116.791 28.616C117.409 28.8613 118.103 28.984 118.871 28.984C119.585 28.984 120.199 28.904 120.711 28.744C121.233 28.5733 121.681 28.392 122.055 28.2C122.428 28.008 122.737 27.832 122.983 27.672C123.239 27.5013 123.457 27.416 123.639 27.416C123.873 27.416 124.055 27.5067 124.183 27.688L124.983 28.728C124.631 29.1547 124.209 29.528 123.719 29.848C123.228 30.1573 122.7 30.4133 122.135 30.616C121.58 30.8187 121.004 30.968 120.407 31.064C119.809 31.1707 119.217 31.224 118.631 31.224C117.511 31.224 116.476 31.0373 115.527 30.664C114.588 30.28 113.772 29.7253 113.079 29C112.396 28.264 111.863 27.3573 111.479 26.28C111.095 25.2027 110.903 23.9653 110.903 22.568C110.903 21.4373 111.073 20.3813 111.415 19.4C111.767 18.4187 112.268 17.5707 112.919 16.856C113.569 16.1307 114.364 15.5653 115.303 15.16C116.241 14.744 117.297 14.536 118.471 14.536ZM118.535 16.632C117.159 16.632 116.076 17.032 115.287 17.832C114.497 18.6213 114.007 19.72 113.815 21.128H122.631C122.631 20.4667 122.54 19.864 122.359 19.32C122.177 18.7653 121.911 18.2907 121.559 17.896C121.207 17.4907 120.775 17.1813 120.263 16.968C119.761 16.744 119.185 16.632 118.535 16.632Z" fill="black"/>
</g>
<defs>
<clipPath id="clip0_8_150">
<rect width="285" height="194" rx="30" fill="white"/>
</clipPath>
</defs>
</svg>
