<svg width="105" height="105" viewBox="0 0 105 105" fill="none" xmlns="http://www.w3.org/2000/svg">
<g clip-path="url(#clip0_32_40)">
<path d="M52.5 9.46313C66.5175 9.46313 68.18 9.51563 73.7188 9.76938C87.9463 10.4169 94.5919 17.1675 95.2394 31.29C95.4931 36.8244 95.5412 38.4869 95.5412 52.5044C95.5412 66.5263 95.4887 68.1844 95.2394 73.7188C94.5875 87.8281 87.9594 94.5919 73.7188 95.2394C68.18 95.4931 66.5263 95.5456 52.5 95.5456C38.4825 95.5456 36.82 95.4931 31.2856 95.2394C17.0231 94.5875 10.4125 87.8063 9.765 73.7144C9.51125 68.18 9.45875 66.5219 9.45875 52.5C9.45875 38.4825 9.51563 36.8244 9.765 31.2856C10.4169 17.1675 17.045 10.4125 31.2856 9.765C36.8244 9.51563 38.4825 9.46313 52.5 9.46313V9.46313ZM52.5 0C38.2419 0 36.4569 0.06125 30.8569 0.315C11.7906 1.19 1.19438 11.7688 0.319375 30.8525C0.06125 36.4569 0 38.2419 0 52.5C0 66.7581 0.06125 68.5475 0.315 74.1475C1.19 93.2137 11.7688 103.81 30.8525 104.685C36.4569 104.939 38.2419 105 52.5 105C66.7581 105 68.5475 104.939 74.1475 104.685C93.1963 103.81 103.819 93.2312 104.681 74.1475C104.939 68.5475 105 66.7581 105 52.5C105 38.2419 104.939 36.4569 104.685 30.8569C103.827 11.8081 93.2356 1.19438 74.1519 0.319375C68.5475 0.06125 66.7581 0 52.5 0V0ZM52.5 25.5412C37.6119 25.5412 25.5412 37.6119 25.5412 52.5C25.5412 67.3881 37.6119 79.4631 52.5 79.4631C67.3881 79.4631 79.4588 67.3925 79.4588 52.5C79.4588 37.6119 67.3881 25.5412 52.5 25.5412ZM52.5 70C42.8356 70 35 62.1688 35 52.5C35 42.8356 42.8356 35 52.5 35C62.1644 35 70 42.8356 70 52.5C70 62.1688 62.1644 70 52.5 70ZM80.5263 18.1781C77.0438 18.1781 74.2219 21 74.2219 24.4781C74.2219 27.9562 77.0438 30.7781 80.5263 30.7781C84.0044 30.7781 86.8219 27.9562 86.8219 24.4781C86.8219 21 84.0044 18.1781 80.5263 18.1781Z" fill="black"/>
</g>
<defs>
<clipPath id="clip0_32_40">
<rect width="105" height="105" fill="white"/>
</clipPath>
</defs>
</svg>
