<svg width="105" height="105" viewBox="0 0 105 105" fill="none" xmlns="http://www.w3.org/2000/svg">
<g clip-path="url(#clip0_40_18)">
<path d="M52.5 9.46307C66.5175 9.46307 68.18 9.51557 73.7188 9.76932C87.9463 10.4168 94.5919 17.1674 95.2394 31.2899C95.4931 36.8243 95.5412 38.4868 95.5412 52.5043C95.5412 66.5262 95.4887 68.1843 95.2394 73.7187C94.5875 87.828 87.9594 94.5918 73.7188 95.2393C68.18 95.493 66.5263 95.5455 52.5 95.5455C38.4825 95.5455 36.82 95.493 31.2856 95.2393C17.0231 94.5874 10.4125 87.8062 9.765 73.7143C9.51125 68.1799 9.45875 66.5218 9.45875 52.4999C9.45875 38.4824 9.51563 36.8243 9.765 31.2855C10.4169 17.1674 17.045 10.4124 31.2856 9.76494C36.8244 9.51557 38.4825 9.46307 52.5 9.46307ZM52.5 -6.10352e-05C38.2419 -6.10352e-05 36.4569 0.061189 30.8569 0.314939C11.7906 1.18994 1.19438 11.7687 0.319375 30.8524C0.06125 36.4568 0 38.2418 0 52.4999C0 66.758 0.06125 68.5474 0.315 74.1474C1.19 93.2136 11.7688 103.81 30.8525 104.685C36.4569 104.939 38.2419 105 52.5 105C66.7581 105 68.5475 104.939 74.1475 104.685C93.1963 103.81 103.819 93.2311 104.681 74.1474C104.939 68.5474 105 66.758 105 52.4999C105 38.2418 104.939 36.4568 104.685 30.8568C103.827 11.808 93.2356 1.19432 74.1519 0.319314C68.5475 0.061189 66.7581 -6.10352e-05 52.5 -6.10352e-05ZM52.5 25.5411C37.6119 25.5411 25.5412 37.6118 25.5412 52.4999C25.5412 67.388 37.6119 79.463 52.5 79.463C67.3881 79.463 79.4588 67.3924 79.4588 52.4999C79.4588 37.6118 67.3881 25.5411 52.5 25.5411ZM52.5 69.9999C42.8356 69.9999 35 62.1687 35 52.4999C35 42.8355 42.8356 34.9999 52.5 34.9999C62.1644 34.9999 70 42.8355 70 52.4999C70 62.1687 62.1644 69.9999 52.5 69.9999ZM80.5263 18.178C77.0438 18.178 74.2219 20.9999 74.2219 24.478C74.2219 27.9561 77.0438 30.778 80.5263 30.778C84.0044 30.778 86.8219 27.9561 86.8219 24.478C86.8219 20.9999 84.0044 18.178 80.5263 18.178V18.178Z" fill="#FFDE00"/>
</g>
<defs>
<clipPath id="clip0_40_18">
<rect width="105" height="105" fill="white"/>
</clipPath>
</defs>
</svg>
