<svg width="80" height="80" viewBox="0 0 80 80" fill="none" xmlns="http://www.w3.org/2000/svg">
<g clip-path="url(#clip0_7_12)">
<path d="M14.4251 70.7641C22.4791 77.4596 33.2398 80.7983 43.6693 79.8377C54.0988 78.8771 64.0686 73.629 70.7641 65.575C77.4596 57.521 80.7983 46.7603 79.8377 36.3308C78.8771 25.9013 73.629 15.9315 65.575 9.23597C57.5209 2.54047 46.7602 -0.79827 36.3307 0.162343C25.9013 1.12296 15.9314 6.37109 9.23594 14.4251C2.54043 22.4791 -0.798299 33.2398 0.162313 43.6693C1.12292 54.0988 6.37104 64.0686 14.4251 70.7641Z" fill="black"/>
<path d="M12.5754 34.589C14.5136 37.7248 17.7307 40.0434 21.3185 40.8903C24.9064 41.7371 28.8207 41.1018 31.9565 39.1636C35.0923 37.2254 37.4109 34.0083 38.2578 30.4205C39.1046 26.8326 38.4693 22.9183 36.5311 19.7825C34.5929 16.6467 31.3758 14.3281 27.788 13.4812C24.2002 12.6344 20.2858 13.2697 17.15 15.2079C14.0142 17.1461 11.6956 20.3632 10.8487 23.951C10.0019 27.5389 10.6372 31.4532 12.5754 34.589Z" fill="#FFDE00"/>
</g>
<defs>
<clipPath id="clip0_7_12">
<rect width="80" height="80" fill="white"/>
</clipPath>
</defs>
</svg>
