<svg width="320" height="320" viewBox="0 0 320 320" fill="none" xmlns="http://www.w3.org/2000/svg">
<g clip-path="url(#clip0_39_8)">
<path d="M57.6606 282.862C89.8545 309.625 132.868 322.971 174.557 319.131C216.246 315.291 256.098 294.313 282.862 262.119C309.625 229.926 322.971 186.912 319.131 145.223C315.291 103.534 294.313 63.682 262.119 36.9184C229.926 10.1548 186.912 -3.19101 145.223 0.648805C103.534 4.48862 63.6819 25.4667 36.9183 57.6606C10.1547 89.8545 -3.191 132.868 0.648804 174.557C4.4886 216.246 25.4667 256.098 57.6606 282.862V282.862Z" fill="black"/>
<path d="M50.2671 138.261C58.0144 150.795 70.8741 160.063 85.2155 163.449C99.557 166.834 115.204 164.294 127.738 156.547C140.273 148.799 149.541 135.94 152.926 121.598C156.311 107.257 153.771 91.6101 146.024 79.0755C138.277 66.541 125.417 57.2729 111.076 53.8879C96.7341 50.5028 81.0874 53.0424 68.5528 60.7898C56.0183 68.5371 46.7502 81.3968 43.3652 95.7382C39.9801 110.08 42.5197 125.726 50.2671 138.261Z" fill="#FFFF00"/>
<path d="M150.868 319.348C111.705 316.802 74.1925 299.996 47.2101 272.909C14.9392 240.513 -2.48921 194.758 0.541099 150.389C2.02914 128.601 7.36802 108.663 16.9091 89.2624C20.8705 81.2075 23.3345 76.947 28.1105 69.894C47.4313 41.3618 76.1361 19.7611 109.792 8.42735C141.954 -2.40298 176.464 -2.48167 209.261 8.20054C219.296 11.469 232.029 17.1672 240.863 22.3429C273.914 41.7054 298.836 72.6244 311.353 109.792C321.696 140.508 322.253 172.805 312.989 204.613C308.003 221.731 298.959 240.123 288.483 254.45C273.826 274.494 253.966 291.156 231.068 302.621C214.509 310.911 196.216 316.381 177.549 318.625C172.567 319.224 155.907 319.676 150.868 319.348V319.348ZM104.418 164.68C110.616 164.162 118.034 161.886 124.572 158.496C139.29 150.866 150.292 136.053 153.62 119.39C154.135 116.812 154.31 114.13 154.31 108.833C154.31 101.002 153.835 97.7129 151.761 91.1877C145.456 71.3532 127.916 56.2842 107.297 52.9872C103.043 52.3069 94.4415 52.2211 90.163 52.8162C57.9223 57.3005 36.1854 88.5086 42.9915 120.541C48.132 144.735 68.9355 162.996 93.477 164.855C97.4348 165.155 99.0412 165.13 104.418 164.68V164.68Z" fill="#FFDE00"/>
<path d="M92.7797 164.471C80.0012 163.283 68.0467 157.541 58.5191 148.013C50.2123 139.707 45.2356 130.239 42.9679 118.43C41.9312 113.031 42.0079 103.07 43.1267 97.8195C45.5014 86.6752 50.637 77.2157 58.7328 69.0739C66.6467 61.1149 75.9667 56.0964 87.3348 53.6725C92.0304 52.6713 104.607 52.6809 109.196 53.6891C119.896 56.0401 129.083 60.941 136.977 68.5085C142.004 73.3277 145.186 77.6389 148.182 83.6877C152.634 92.6748 154.393 100.908 154.006 110.944C153.76 117.304 153.183 120.535 151.249 126.358C143.09 150.932 118.635 166.873 92.7797 164.471L92.7797 164.471Z" fill="#1A1A1A"/>
</g>
<defs>
<clipPath id="clip0_39_8">
<rect width="319.78" height="319.78" fill="white"/>
</clipPath>
</defs>
</svg>
