<svg width="374" height="376" viewBox="0 0 374 376" fill="none" xmlns="http://www.w3.org/2000/svg">
<g clip-path="url(#clip0_43_73)">
<path d="M72.3347 282.862C104.529 309.625 147.542 322.971 189.231 319.131C230.92 315.291 270.772 294.313 297.536 262.119C324.299 229.926 337.645 186.912 333.805 145.223C329.965 103.534 308.987 63.6819 276.794 36.9183C244.6 10.1547 201.586 -3.19101 159.897 0.648806C118.208 4.48862 78.3561 25.4667 51.5925 57.6606C24.8289 89.8544 11.4832 132.868 15.3229 174.557C19.1627 216.246 40.1408 256.098 72.3347 282.862V282.862Z" fill="black"/>
<path d="M64.9412 138.261C72.6885 150.795 85.5482 160.064 99.8897 163.449C114.231 166.834 129.878 164.294 142.412 156.547C154.947 148.799 164.215 135.94 167.6 121.598C170.985 107.257 168.445 91.6101 160.698 79.0756C152.951 66.5411 140.091 57.2729 125.75 53.8879C111.408 50.5028 95.7615 53.0425 83.227 60.7898C70.6925 68.5372 61.4244 81.3968 58.0393 95.7383C54.6542 110.08 57.1938 125.726 64.9412 138.261Z" fill="#FFFF00"/>
<path d="M23.952 336.737C23.824 337.857 23.728 338.945 23.664 340.001C23.632 341.057 23.616 341.857 23.616 342.401C23.616 342.977 23.632 343.537 23.664 344.081C23.696 344.593 23.728 345.025 23.76 345.377H22.656C22.464 343.489 22.192 342.001 21.84 340.913C21.488 339.793 20.88 339.009 20.016 338.561C19.184 338.081 17.92 337.841 16.224 337.841H12.24C11.152 337.841 10.32 337.937 9.74401 338.129C9.20001 338.289 8.83201 338.657 8.64001 339.233C8.44801 339.777 8.35201 340.641 8.35201 341.825V365.633C8.35201 366.785 8.44801 367.649 8.64001 368.225C8.83201 368.801 9.20001 369.185 9.74401 369.377C10.32 369.537 11.152 369.617 12.24 369.617H15.744C17.76 369.617 19.28 369.345 20.304 368.801C21.36 368.257 22.112 367.377 22.56 366.161C23.04 364.913 23.392 363.233 23.616 361.121H24.72C24.624 361.985 24.576 363.137 24.576 364.577C24.576 365.185 24.592 366.065 24.624 367.217C24.688 368.337 24.784 369.505 24.912 370.721C23.28 370.657 21.44 370.625 19.392 370.625C17.344 370.593 15.52 370.577 13.92 370.577C13.216 370.577 12.304 370.577 11.184 370.577C10.096 370.577 8.91201 370.593 7.63201 370.625C6.35201 370.625 5.05601 370.641 3.74401 370.673C2.43201 370.673 1.18401 370.689 8.78048e-06 370.721V369.761C1.08801 369.697 1.90401 369.569 2.44801 369.377C3.02401 369.185 3.40801 368.801 3.60001 368.225C3.79201 367.649 3.88801 366.785 3.88801 365.633V341.825C3.88801 340.641 3.79201 339.777 3.60001 339.233C3.40801 338.657 3.02401 338.273 2.44801 338.081C1.90401 337.857 1.08801 337.729 8.78048e-06 337.697V336.737C1.18401 336.769 2.43201 336.801 3.74401 336.833C5.05601 336.833 6.35201 336.849 7.63201 336.881C8.91201 336.881 10.096 336.881 11.184 336.881C12.304 336.881 13.216 336.881 13.92 336.881C15.392 336.881 17.056 336.881 18.912 336.881C20.8 336.849 22.48 336.801 23.952 336.737ZM15.696 353.153C15.696 353.153 15.696 353.313 15.696 353.633C15.696 353.953 15.696 354.113 15.696 354.113H6.91201C6.91201 354.113 6.91201 353.953 6.91201 353.633C6.91201 353.313 6.91201 353.153 6.91201 353.153H15.696ZM17.088 346.817C16.96 348.641 16.896 350.033 16.896 350.993C16.928 351.953 16.944 352.833 16.944 353.633C16.944 354.433 16.96 355.313 16.992 356.273C17.024 357.233 17.104 358.625 17.232 360.449H16.128C16 359.425 15.84 358.433 15.648 357.473C15.488 356.481 15.104 355.681 14.496 355.073C13.92 354.433 12.928 354.113 11.52 354.113V353.153C12.576 353.153 13.376 352.945 13.92 352.529C14.496 352.081 14.912 351.521 15.168 350.849C15.424 350.177 15.6 349.489 15.696 348.785C15.792 348.049 15.888 347.393 15.984 346.817H17.088ZM44.466 345.329C45.586 345.329 46.562 345.489 47.394 345.809C48.226 346.129 48.914 346.577 49.458 347.153C50.066 347.793 50.482 348.625 50.706 349.649C50.93 350.673 51.042 351.937 51.042 353.441V366.257C51.042 367.601 51.314 368.513 51.858 368.993C52.434 369.473 53.378 369.713 54.69 369.713V370.721C54.146 370.689 53.314 370.657 52.194 370.625C51.074 370.561 49.986 370.529 48.93 370.529C47.874 370.529 46.834 370.561 45.81 370.625C44.818 370.657 44.066 370.689 43.554 370.721V369.713C44.706 369.713 45.522 369.473 46.002 368.993C46.482 368.513 46.722 367.601 46.722 366.257V352.385C46.722 351.393 46.658 350.481 46.53 349.649C46.402 348.817 46.082 348.145 45.57 347.633C45.058 347.121 44.226 346.865 43.074 346.865C41.826 346.865 40.706 347.249 39.714 348.017C38.754 348.785 37.986 349.841 37.41 351.185C36.866 352.497 36.594 353.969 36.594 355.601V366.257C36.594 367.601 36.834 368.513 37.314 368.993C37.794 369.473 38.61 369.713 39.762 369.713V370.721C39.25 370.689 38.482 370.657 37.458 370.625C36.466 370.561 35.442 370.529 34.386 370.529C33.33 370.529 32.242 370.561 31.122 370.625C30.002 370.657 29.17 370.689 28.626 370.721V369.713C29.938 369.713 30.866 369.473 31.41 368.993C31.986 368.513 32.274 367.601 32.274 366.257V351.233C32.274 349.793 32.018 348.737 31.506 348.065C30.994 347.361 30.034 347.009 28.626 347.009V346.001C29.65 346.097 30.642 346.145 31.602 346.145C32.53 346.145 33.41 346.097 34.242 346.001C35.106 345.873 35.89 345.697 36.594 345.473V351.137C37.426 349.057 38.562 347.569 40.002 346.673C41.442 345.777 42.93 345.329 44.466 345.329ZM58.914 345.329C60.034 345.329 61.01 345.489 61.842 345.809C62.674 346.129 63.362 346.577 63.906 347.153C64.514 347.793 64.93 348.625 65.154 349.649C65.378 350.673 65.49 351.937 65.49 353.441V366.257C65.49 367.601 65.762 368.513 66.306 368.993C66.882 369.473 67.826 369.713 69.138 369.713V370.721C68.594 370.689 67.762 370.657 66.642 370.625C65.522 370.561 64.434 370.529 63.378 370.529C62.322 370.529 61.282 370.561 60.258 370.625C59.266 370.657 58.514 370.689 58.002 370.721V369.713C59.154 369.713 59.97 369.473 60.45 368.993C60.93 368.513 61.17 367.601 61.17 366.257V352.385C61.17 351.393 61.106 350.481 60.978 349.649C60.85 348.817 60.53 348.145 60.018 347.633C59.506 347.121 58.674 346.865 57.522 346.865C56.274 346.865 55.154 347.249 54.162 348.017C53.202 348.785 52.434 349.825 51.858 351.137C51.314 352.449 51.042 353.921 51.042 355.553L50.898 351.089C51.762 348.881 52.93 347.377 54.402 346.577C55.874 345.745 57.378 345.329 58.914 345.329ZM78.8674 345.473V374.945C78.8674 376.321 79.2674 377.233 80.0674 377.681C80.8994 378.161 82.0354 378.401 83.4754 378.401V379.409C82.7714 379.377 81.7954 379.329 80.5474 379.265C79.2994 379.233 77.9714 379.217 76.5634 379.217C75.5714 379.217 74.5794 379.233 73.5874 379.265C72.6274 379.329 71.8914 379.377 71.3794 379.409V378.401C72.5314 378.401 73.3474 378.193 73.8274 377.777C74.3074 377.361 74.5474 376.577 74.5474 375.425V351.233C74.5474 349.793 74.2914 348.737 73.7794 348.065C73.2674 347.361 72.3074 347.009 70.8994 347.009V346.001C71.9234 346.097 72.9154 346.145 73.8754 346.145C74.8034 346.145 75.6834 346.097 76.5154 346.001C77.3794 345.873 78.1634 345.697 78.8674 345.473ZM86.5474 345.329C88.2434 345.329 89.7634 345.793 91.1074 346.721C92.4514 347.617 93.5074 348.945 94.2754 350.705C95.0754 352.465 95.4754 354.641 95.4754 357.233C95.4754 358.961 95.2674 360.673 94.8514 362.369C94.4354 364.033 93.7794 365.553 92.8834 366.929C92.0194 368.273 90.8834 369.361 89.4754 370.193C88.0994 370.993 86.4354 371.393 84.4834 371.393C82.9794 371.393 81.6674 371.041 80.5474 370.337C79.4594 369.633 78.7234 368.785 78.3394 367.793L78.8194 367.121C79.2674 368.017 79.9074 368.769 80.7394 369.377C81.6034 369.985 82.6754 370.289 83.9554 370.289C85.7474 370.289 87.1394 369.729 88.1314 368.609C89.1234 367.489 89.8114 366.001 90.1954 364.145C90.6114 362.257 90.8194 360.177 90.8194 357.905C90.8194 355.345 90.6114 353.249 90.1954 351.617C89.7794 349.985 89.1554 348.769 88.3234 347.969C87.4914 347.169 86.4674 346.769 85.2514 346.769C83.6834 346.769 82.2594 347.425 80.9794 348.737C79.6994 350.017 78.8834 351.969 78.5314 354.593L77.9554 353.921C78.3074 351.201 79.2674 349.089 80.8354 347.585C82.4354 346.081 84.3394 345.329 86.5474 345.329ZM104.598 334.001C105.43 334.001 106.15 334.305 106.758 334.913C107.366 335.521 107.67 336.241 107.67 337.073C107.67 337.905 107.366 338.625 106.758 339.233C106.15 339.841 105.43 340.145 104.598 340.145C103.766 340.145 103.046 339.841 102.438 339.233C101.83 338.625 101.526 337.905 101.526 337.073C101.526 336.241 101.83 335.521 102.438 334.913C103.046 334.305 103.766 334.001 104.598 334.001ZM107.094 345.473V366.257C107.094 367.601 107.366 368.513 107.91 368.993C108.486 369.473 109.43 369.713 110.742 369.713V370.721C110.198 370.689 109.366 370.657 108.246 370.625C107.158 370.561 106.054 370.529 104.934 370.529C103.846 370.529 102.742 370.561 101.622 370.625C100.502 370.657 99.67 370.689 99.126 370.721V369.713C100.438 369.713 101.366 369.473 101.91 368.993C102.486 368.513 102.774 367.601 102.774 366.257V351.233C102.774 349.793 102.518 348.737 102.006 348.065C101.494 347.361 100.534 347.009 99.126 347.009V346.001C100.15 346.097 101.142 346.145 102.102 346.145C103.03 346.145 103.91 346.097 104.742 346.001C105.606 345.873 106.39 345.697 107.094 345.473ZM128.117 345.329C128.981 345.329 129.733 345.505 130.373 345.857C131.045 346.209 131.557 346.673 131.909 347.249C132.293 347.793 132.485 348.417 132.485 349.121C132.485 349.921 132.229 350.625 131.717 351.233C131.237 351.841 130.581 352.145 129.749 352.145C129.077 352.145 128.485 351.937 127.973 351.521C127.461 351.073 127.205 350.449 127.205 349.649C127.205 349.041 127.365 348.529 127.685 348.113C128.037 347.665 128.421 347.313 128.837 347.057C128.613 346.737 128.277 346.577 127.829 346.577C126.837 346.577 125.925 346.881 125.093 347.489C124.261 348.065 123.557 348.817 122.981 349.745C122.405 350.673 121.957 351.665 121.637 352.721C121.317 353.745 121.157 354.705 121.157 355.601V365.777C121.157 367.345 121.605 368.401 122.501 368.945C123.429 369.457 124.677 369.713 126.245 369.713V370.721C125.509 370.689 124.469 370.657 123.125 370.625C121.781 370.561 120.357 370.529 118.853 370.529C117.765 370.529 116.677 370.561 115.589 370.625C114.533 370.657 113.733 370.689 113.189 370.721V369.713C114.501 369.713 115.429 369.473 115.973 368.993C116.549 368.513 116.837 367.601 116.837 366.257V351.233C116.837 349.793 116.581 348.737 116.069 348.065C115.557 347.361 114.597 347.009 113.189 347.009V346.001C114.213 346.097 115.205 346.145 116.165 346.145C117.093 346.145 117.973 346.097 118.805 346.001C119.669 345.873 120.453 345.697 121.157 345.473V351.473C121.509 350.545 122.005 349.617 122.645 348.689C123.317 347.729 124.117 346.929 125.045 346.289C125.973 345.649 126.997 345.329 128.117 345.329ZM145.29 345.329C148.106 345.329 150.298 346.193 151.866 347.921C153.466 349.617 154.266 352.273 154.266 355.889H137.322L137.274 354.977H149.658C149.722 353.409 149.594 351.969 149.274 350.657C148.954 349.313 148.442 348.241 147.738 347.441C147.066 346.641 146.186 346.241 145.098 346.241C143.626 346.241 142.314 346.977 141.162 348.449C140.042 349.921 139.37 352.257 139.146 355.457L139.29 355.649C139.226 356.129 139.178 356.657 139.146 357.233C139.114 357.809 139.098 358.385 139.098 358.961C139.098 361.137 139.45 363.009 140.154 364.577C140.858 366.145 141.77 367.345 142.89 368.177C144.042 368.977 145.226 369.377 146.442 369.377C147.402 369.377 148.314 369.233 149.178 368.945C150.042 368.625 150.842 368.113 151.578 367.409C152.314 366.705 152.954 365.761 153.498 364.577L154.458 364.961C154.106 366.017 153.53 367.041 152.73 368.033C151.93 369.025 150.922 369.841 149.706 370.481C148.49 371.089 147.082 371.393 145.482 371.393C143.178 371.393 141.194 370.865 139.53 369.809C137.898 368.753 136.634 367.297 135.738 365.441C134.874 363.553 134.442 361.393 134.442 358.961C134.442 356.145 134.89 353.729 135.786 351.713C136.682 349.665 137.946 348.097 139.578 347.009C141.21 345.889 143.114 345.329 145.29 345.329ZM180.756 336.209C182.356 336.209 183.572 336.401 184.404 336.785C185.236 337.137 185.972 337.537 186.612 337.985C186.996 338.209 187.3 338.385 187.524 338.513C187.78 338.609 188.02 338.657 188.244 338.657C188.564 338.657 188.788 338.481 188.916 338.129C189.076 337.777 189.204 337.249 189.3 336.545H190.404C190.372 337.089 190.324 337.745 190.26 338.513C190.228 339.249 190.196 340.241 190.164 341.489C190.164 342.705 190.164 344.321 190.164 346.337H189.06C188.964 344.801 188.628 343.329 188.052 341.921C187.476 340.513 186.628 339.361 185.508 338.465C184.42 337.569 182.98 337.121 181.188 337.121C179.492 337.121 178.084 337.633 176.964 338.657C175.876 339.681 175.332 341.025 175.332 342.689C175.332 344.129 175.7 345.345 176.436 346.337C177.172 347.297 178.148 348.177 179.364 348.977C180.612 349.745 181.956 350.577 183.396 351.473C185.06 352.497 186.532 353.521 187.812 354.545C189.124 355.537 190.148 356.641 190.884 357.857C191.652 359.073 192.036 360.545 192.036 362.273C192.036 364.321 191.572 366.017 190.644 367.361C189.716 368.705 188.484 369.713 186.948 370.385C185.412 371.057 183.716 371.393 181.86 371.393C180.164 371.393 178.82 371.201 177.828 370.817C176.836 370.433 175.988 370.033 175.284 369.617C174.58 369.169 174.036 368.945 173.652 368.945C173.332 368.945 173.092 369.121 172.932 369.473C172.804 369.825 172.692 370.353 172.596 371.057H171.492C171.556 370.385 171.588 369.601 171.588 368.705C171.62 367.777 171.636 366.577 171.636 365.105C171.668 363.633 171.684 361.777 171.684 359.537H172.788C172.916 361.457 173.268 363.249 173.844 364.913C174.452 366.577 175.364 367.921 176.58 368.945C177.828 369.937 179.476 370.433 181.524 370.433C182.58 370.433 183.572 370.225 184.5 369.809C185.46 369.361 186.244 368.673 186.852 367.745C187.46 366.785 187.764 365.553 187.764 364.049C187.764 362.737 187.444 361.601 186.804 360.641C186.196 359.649 185.332 358.737 184.212 357.905C183.092 357.041 181.78 356.161 180.276 355.265C178.772 354.337 177.364 353.393 176.052 352.433C174.74 351.473 173.684 350.369 172.884 349.121C172.116 347.841 171.732 346.305 171.732 344.513C171.732 342.625 172.148 341.073 172.98 339.857C173.844 338.609 174.964 337.697 176.34 337.121C177.716 336.513 179.188 336.209 180.756 336.209ZM203.51 338.033V346.049H210.614V347.009H203.51V365.585C203.51 367.089 203.782 368.145 204.326 368.753C204.87 369.361 205.622 369.665 206.582 369.665C207.542 369.665 208.374 369.281 209.078 368.513C209.782 367.713 210.39 366.385 210.902 364.529L211.862 364.769C211.542 366.625 210.902 368.193 209.942 369.473C209.014 370.753 207.574 371.393 205.622 371.393C204.534 371.393 203.638 371.249 202.934 370.961C202.23 370.705 201.606 370.321 201.062 369.809C200.358 369.073 199.862 368.193 199.574 367.169C199.318 366.145 199.19 364.785 199.19 363.089V347.009H194.582V346.049H199.19V338.705C199.99 338.673 200.758 338.609 201.494 338.513C202.23 338.417 202.902 338.257 203.51 338.033ZM219.567 371.057C218.255 371.057 217.119 370.817 216.159 370.337C215.199 369.825 214.463 369.121 213.951 368.225C213.471 367.329 213.231 366.289 213.231 365.105C213.231 363.697 213.551 362.545 214.191 361.649C214.863 360.753 215.711 360.033 216.735 359.489C217.759 358.945 218.831 358.497 219.951 358.145C221.103 357.761 222.191 357.409 223.215 357.089C224.239 356.737 225.071 356.337 225.711 355.889C226.383 355.441 226.719 354.849 226.719 354.113V351.137C226.719 349.793 226.511 348.769 226.095 348.065C225.711 347.361 225.183 346.897 224.511 346.673C223.839 346.417 223.087 346.289 222.255 346.289C221.455 346.289 220.591 346.401 219.663 346.625C218.767 346.849 218.047 347.313 217.503 348.017C218.111 348.145 218.639 348.465 219.087 348.977C219.535 349.489 219.759 350.145 219.759 350.945C219.759 351.745 219.503 352.385 218.991 352.865C218.479 353.313 217.823 353.537 217.023 353.537C216.095 353.537 215.407 353.249 214.959 352.673C214.543 352.065 214.335 351.393 214.335 350.657C214.335 349.825 214.543 349.153 214.959 348.641C215.375 348.129 215.903 347.649 216.543 347.201C217.279 346.689 218.223 346.257 219.375 345.905C220.559 345.521 221.887 345.329 223.359 345.329C224.671 345.329 225.791 345.489 226.719 345.809C227.647 346.097 228.415 346.529 229.023 347.105C229.855 347.873 230.399 348.817 230.655 349.937C230.911 351.025 231.039 352.337 231.039 353.873V367.217C231.039 368.017 231.151 368.593 231.375 368.945C231.631 369.297 232.015 369.473 232.527 369.473C232.879 369.473 233.215 369.393 233.535 369.233C233.855 369.073 234.239 368.817 234.687 368.465L235.215 369.281C234.543 369.793 233.903 370.225 233.295 370.577C232.687 370.897 231.871 371.057 230.847 371.057C229.919 371.057 229.151 370.897 228.543 370.577C227.935 370.257 227.471 369.793 227.151 369.185C226.863 368.545 226.719 367.745 226.719 366.785C225.855 368.225 224.815 369.297 223.599 370.001C222.415 370.705 221.071 371.057 219.567 371.057ZM221.295 369.137C222.351 369.137 223.327 368.833 224.223 368.225C225.151 367.617 225.983 366.705 226.719 365.489V356.081C226.335 356.625 225.775 357.089 225.039 357.473C224.303 357.825 223.503 358.193 222.639 358.577C221.775 358.929 220.943 359.361 220.143 359.873C219.375 360.353 218.735 360.993 218.223 361.793C217.711 362.593 217.455 363.633 217.455 364.913C217.455 366.193 217.791 367.217 218.463 367.985C219.167 368.753 220.111 369.137 221.295 369.137ZM251.585 345.329C252.449 345.329 253.201 345.505 253.841 345.857C254.513 346.209 255.025 346.673 255.377 347.249C255.761 347.793 255.953 348.417 255.953 349.121C255.953 349.921 255.697 350.625 255.185 351.233C254.705 351.841 254.049 352.145 253.217 352.145C252.545 352.145 251.953 351.937 251.441 351.521C250.929 351.073 250.673 350.449 250.673 349.649C250.673 349.041 250.833 348.529 251.153 348.113C251.505 347.665 251.889 347.313 252.305 347.057C252.081 346.737 251.745 346.577 251.297 346.577C250.305 346.577 249.393 346.881 248.561 347.489C247.729 348.065 247.025 348.817 246.449 349.745C245.873 350.673 245.425 351.665 245.105 352.721C244.785 353.745 244.625 354.705 244.625 355.601V365.777C244.625 367.345 245.073 368.401 245.969 368.945C246.897 369.457 248.145 369.713 249.713 369.713V370.721C248.977 370.689 247.937 370.657 246.593 370.625C245.249 370.561 243.825 370.529 242.321 370.529C241.233 370.529 240.145 370.561 239.057 370.625C238.001 370.657 237.201 370.689 236.657 370.721V369.713C237.969 369.713 238.897 369.473 239.441 368.993C240.017 368.513 240.305 367.601 240.305 366.257V351.233C240.305 349.793 240.049 348.737 239.537 348.065C239.025 347.361 238.065 347.009 236.657 347.009V346.001C237.681 346.097 238.673 346.145 239.633 346.145C240.561 346.145 241.441 346.097 242.273 346.001C243.137 345.873 243.921 345.697 244.625 345.473V351.473C244.977 350.545 245.473 349.617 246.113 348.689C246.785 347.729 247.585 346.929 248.513 346.289C249.441 345.649 250.465 345.329 251.585 345.329ZM281.818 336.737V337.697C280.73 337.729 279.898 337.857 279.322 338.081C278.778 338.273 278.41 338.657 278.218 339.233C278.026 339.777 277.93 340.641 277.93 341.825V365.633C277.93 366.785 278.026 367.649 278.218 368.225C278.41 368.801 278.778 369.185 279.322 369.377C279.898 369.537 280.73 369.617 281.818 369.617H285.322C286.826 369.617 288.042 369.457 288.97 369.137C289.93 368.817 290.682 368.321 291.226 367.649C291.802 366.945 292.234 366.017 292.522 364.865C292.81 363.713 293.034 362.305 293.194 360.641H294.298C294.202 361.633 294.154 362.945 294.154 364.577C294.154 365.185 294.17 366.065 294.202 367.217C294.266 368.337 294.362 369.505 294.49 370.721C292.858 370.657 291.018 370.625 288.97 370.625C286.922 370.593 285.098 370.577 283.498 370.577C282.794 370.577 281.882 370.577 280.762 370.577C279.674 370.577 278.49 370.593 277.21 370.625C275.93 370.625 274.634 370.641 273.322 370.673C272.01 370.673 270.762 370.689 269.578 370.721V369.761C270.666 369.697 271.482 369.569 272.026 369.377C272.602 369.185 272.986 368.801 273.178 368.225C273.37 367.649 273.466 366.785 273.466 365.633V341.825C273.466 340.641 273.37 339.777 273.178 339.233C272.986 338.657 272.602 338.273 272.026 338.081C271.482 337.857 270.666 337.729 269.578 337.697V336.737C270.25 336.769 271.13 336.801 272.218 336.833C273.306 336.865 274.474 336.881 275.722 336.881C276.842 336.881 277.946 336.865 279.034 336.833C280.154 336.801 281.082 336.769 281.818 336.737ZM304.901 338.033V346.049H312.005V347.009H304.901V365.585C304.901 367.089 305.173 368.145 305.717 368.753C306.261 369.361 307.013 369.665 307.973 369.665C308.933 369.665 309.765 369.281 310.469 368.513C311.173 367.713 311.781 366.385 312.293 364.529L313.253 364.769C312.933 366.625 312.293 368.193 311.333 369.473C310.405 370.753 308.965 371.393 307.013 371.393C305.925 371.393 305.029 371.249 304.325 370.961C303.621 370.705 302.997 370.321 302.453 369.809C301.749 369.073 301.253 368.193 300.965 367.169C300.709 366.145 300.581 364.785 300.581 363.089V347.009H295.973V346.049H300.581V338.705C301.381 338.673 302.149 338.609 302.885 338.513C303.621 338.417 304.293 338.257 304.901 338.033ZM335.982 333.089V365.489C335.982 366.929 336.238 368.001 336.75 368.705C337.294 369.377 338.254 369.713 339.63 369.713V370.721C338.638 370.625 337.646 370.577 336.654 370.577C335.726 370.577 334.83 370.625 333.966 370.721C333.134 370.817 332.366 370.993 331.662 371.249V338.849C331.662 337.409 331.406 336.353 330.894 335.681C330.382 334.977 329.422 334.625 328.014 334.625V333.617C329.038 333.713 330.03 333.761 330.99 333.761C331.918 333.761 332.798 333.713 333.63 333.617C334.494 333.489 335.278 333.313 335.982 333.089ZM325.902 345.329C327.31 345.329 328.622 345.665 329.838 346.337C331.086 347.009 331.918 348.161 332.334 349.793L331.71 350.273C331.262 348.929 330.558 347.953 329.598 347.345C328.67 346.737 327.566 346.433 326.286 346.433C324.398 346.433 322.814 347.409 321.534 349.361C320.286 351.313 319.678 354.321 319.71 358.385C319.71 360.977 319.95 363.137 320.43 364.865C320.942 366.561 321.678 367.841 322.638 368.705C323.63 369.537 324.83 369.953 326.238 369.953C327.582 369.953 328.798 369.377 329.886 368.225C330.974 367.073 331.63 365.377 331.854 363.137L332.43 363.809C332.174 366.241 331.39 368.113 330.078 369.425C328.798 370.737 327.054 371.393 324.846 371.393C322.862 371.393 321.118 370.913 319.614 369.953C318.142 368.993 317.006 367.553 316.206 365.633C315.438 363.713 315.054 361.297 315.054 358.385C315.054 355.473 315.55 353.057 316.542 351.137C317.566 349.185 318.894 347.729 320.526 346.769C322.19 345.809 323.982 345.329 325.902 345.329ZM348.848 371.057C347.536 371.057 346.4 370.817 345.44 370.337C344.48 369.825 343.744 369.121 343.232 368.225C342.752 367.329 342.512 366.289 342.512 365.105C342.512 363.697 342.832 362.545 343.472 361.649C344.144 360.753 344.992 360.033 346.016 359.489C347.04 358.945 348.112 358.497 349.232 358.145C350.384 357.761 351.472 357.409 352.496 357.089C353.52 356.737 354.352 356.337 354.992 355.889C355.664 355.441 356 354.849 356 354.113V351.137C356 349.793 355.792 348.769 355.376 348.065C354.992 347.361 354.464 346.897 353.792 346.673C353.12 346.417 352.368 346.289 351.536 346.289C350.736 346.289 349.872 346.401 348.944 346.625C348.048 346.849 347.328 347.313 346.784 348.017C347.392 348.145 347.92 348.465 348.368 348.977C348.816 349.489 349.04 350.145 349.04 350.945C349.04 351.745 348.784 352.385 348.272 352.865C347.76 353.313 347.104 353.537 346.304 353.537C345.376 353.537 344.688 353.249 344.24 352.673C343.824 352.065 343.616 351.393 343.616 350.657C343.616 349.825 343.824 349.153 344.24 348.641C344.656 348.129 345.184 347.649 345.824 347.201C346.56 346.689 347.504 346.257 348.656 345.905C349.84 345.521 351.168 345.329 352.64 345.329C353.952 345.329 355.072 345.489 356 345.809C356.928 346.097 357.696 346.529 358.304 347.105C359.136 347.873 359.68 348.817 359.936 349.937C360.192 351.025 360.32 352.337 360.32 353.873V367.217C360.32 368.017 360.432 368.593 360.656 368.945C360.912 369.297 361.296 369.473 361.808 369.473C362.16 369.473 362.496 369.393 362.816 369.233C363.136 369.073 363.52 368.817 363.968 368.465L364.496 369.281C363.824 369.793 363.184 370.225 362.576 370.577C361.968 370.897 361.152 371.057 360.128 371.057C359.2 371.057 358.432 370.897 357.824 370.577C357.216 370.257 356.752 369.793 356.432 369.185C356.144 368.545 356 367.745 356 366.785C355.136 368.225 354.096 369.297 352.88 370.001C351.696 370.705 350.352 371.057 348.848 371.057ZM350.576 369.137C351.632 369.137 352.608 368.833 353.504 368.225C354.432 367.617 355.264 366.705 356 365.489V356.081C355.616 356.625 355.056 357.089 354.32 357.473C353.584 357.825 352.784 358.193 351.92 358.577C351.056 358.929 350.224 359.361 349.424 359.873C348.656 360.353 348.016 360.993 347.504 361.793C346.992 362.593 346.736 363.633 346.736 364.913C346.736 366.193 347.072 367.217 347.744 367.985C348.448 368.753 349.392 369.137 350.576 369.137ZM370.594 365.249C371.426 365.249 372.146 365.553 372.754 366.161C373.362 366.769 373.666 367.489 373.666 368.321C373.666 369.153 373.362 369.873 372.754 370.481C372.146 371.089 371.426 371.393 370.594 371.393C369.762 371.393 369.042 371.089 368.434 370.481C367.826 369.873 367.522 369.153 367.522 368.321C367.522 367.489 367.826 366.769 368.434 366.161C369.042 365.553 369.762 365.249 370.594 365.249Z" fill="#FFDE00"/>
<path d="M101.123 163.24C89.9091 160.636 79.6488 154.591 71.7241 145.92C51.5624 123.86 52.4545 90.6291 73.7809 69.3027C84.6257 58.458 97.2164 53.3251 112.973 53.3251C128.81 53.3251 140.594 58.3573 152.209 70.0809C163.43 81.4072 168.105 92.6387 168.199 108.502C168.276 121.329 165.306 130.592 157.698 141.254C150.737 151.009 141.916 157.47 130.181 161.409C121.442 164.343 109.194 165.114 101.123 163.24V163.24Z" fill="#FFDE00"/>
<path d="M95.8234 161.307C79.4175 155.518 67.0874 143.509 60.872 127.266C58.0302 119.84 57.0447 106.399 58.7044 97.7031C61.6262 82.3944 74.2346 65.9029 87.9933 59.394C96.9456 55.1588 102.872 53.8888 113.509 53.9262C129.431 53.9823 139.661 58.4296 151.746 70.5489C163.642 82.4796 167.623 92.2076 167.611 109.312C167.6 124.424 163.051 135.505 152.087 147.128C141.629 158.214 128.368 163.527 111.182 163.516C103.883 163.511 100.823 163.071 95.8234 161.307Z" fill="black"/>
<path d="M161.773 318.813C104.122 313.089 55.9255 279.86 31.3981 228.925C28.4477 222.798 24.7737 213.999 23.2337 209.372C9.18136 167.149 13.8353 121.16 36.1853 81.3875C68.3504 24.1488 135.011 -8.0971 199.146 2.55768C267.617 13.9328 319.558 65.3491 331.852 133.924C333.847 145.05 334.124 171.354 332.361 182.235C323.622 236.17 292.93 278.383 244.962 302.438C219.519 315.197 187.947 321.412 161.773 318.813V318.813ZM128.957 163.047C146.011 157.954 159.561 145.063 166.333 127.489C169.188 120.08 169.929 103.666 167.793 95.1596C162.727 74.9802 146.652 58.7625 126.715 53.7159C119.608 51.917 106.451 51.9633 98.9346 53.8135C78.465 58.8523 61.729 76.2733 57.2728 97.1806C53.2613 116.001 60.4537 137.836 74.908 150.719C82.1233 157.15 93.8405 162.936 103.434 164.804C107.782 165.651 123.97 164.537 128.957 163.047V163.047Z" fill="#FFDE00"/>
<path d="M113.461 165.827C145.429 165.827 171.344 139.912 171.344 107.945C171.344 75.9768 145.429 50.0617 113.461 50.0617C81.4931 50.0617 55.5781 75.9768 55.5781 107.945C55.5781 139.912 81.4931 165.827 113.461 165.827Z" fill="black"/>
</g>
<defs>
<clipPath id="clip0_43_73">
<rect width="373.68" height="375.409" fill="white"/>
</clipPath>
</defs>
</svg>
